<svg width="24" height="24" viewBox="0 0 24 24" fill="none" xmlns="http://www.w3.org/2000/svg">
<path d="M12 12.7539C12 12.9528 11.921 13.1436 11.7803 13.2842C11.6397 13.4249 11.4489 13.5039 11.25 13.5039H6.75C6.55109 13.5039 6.36032 13.4249 6.21967 13.2842C6.07902 13.1436 6 12.9528 6 12.7539C6 12.555 6.07902 12.3642 6.21967 12.2236C6.36032 12.0829 6.55109 12.0039 6.75 12.0039H11.25C11.4489 12.0039 11.6397 12.0829 11.7803 12.2236C11.921 12.3642 12 12.555 12 12.7539ZM11.25 9.00391H6.75C6.55109 9.00391 6.36032 9.08292 6.21967 9.22358C6.07902 9.36423 6 9.55499 6 9.75391C6 9.95282 6.07902 10.1436 6.21967 10.2842C6.36032 10.4249 6.55109 10.5039 6.75 10.5039H11.25C11.4489 10.5039 11.6397 10.4249 11.7803 10.2842C11.921 10.1436 12 9.95282 12 9.75391C12 9.55499 11.921 9.36423 11.7803 9.22358C11.6397 9.08292 11.4489 9.00391 11.25 9.00391ZM21.75 15.1417V21.0039C21.7512 21.1361 21.7174 21.2663 21.6521 21.3813C21.5867 21.4962 21.4921 21.5919 21.3779 21.6585C21.2637 21.7251 21.1339 21.7604 21.0017 21.7607C20.8695 21.7609 20.7395 21.7263 20.625 21.6602L18.375 20.372L16.125 21.6602C16.0105 21.7263 15.8805 21.7609 15.7483 21.7607C15.6161 21.7604 15.4863 21.7251 15.3721 21.6585C15.2579 21.5919 15.1633 21.4962 15.0979 21.3813C15.0326 21.2663 14.9988 21.1361 15 21.0039V18.7539H3.75C3.35218 18.7539 2.97064 18.5959 2.68934 18.3146C2.40804 18.0333 2.25 17.6517 2.25 17.2539V5.25391C2.25 4.85608 2.40804 4.47455 2.68934 4.19325C2.97064 3.91194 3.35218 3.75391 3.75 3.75391H20.25C20.6478 3.75391 21.0294 3.91194 21.3107 4.19325C21.592 4.47455 21.75 4.85608 21.75 5.25391V8.11609C22.2241 8.57011 22.6014 9.1154 22.8592 9.71911C23.1169 10.3228 23.2498 10.9725 23.2498 11.6289C23.2498 12.2853 23.1169 12.935 22.8592 13.5387C22.6014 14.1424 22.2241 14.6877 21.75 15.1417ZM15 17.2539V15.1417C14.1827 14.3535 13.6662 13.3047 13.5396 12.1763C13.4129 11.0479 13.6842 9.91076 14.3065 8.961C14.9287 8.01124 15.863 7.30849 16.9481 6.97401C18.0332 6.63954 19.201 6.69432 20.25 7.12891V5.25391H3.75V17.2539H15ZM20.25 16.1289C19.656 16.3771 19.0187 16.5048 18.375 16.5048C17.7313 16.5048 17.094 16.3771 16.5 16.1289V19.712L18 18.8533C18.1133 18.7885 18.2416 18.7544 18.3722 18.7544C18.5027 18.7544 18.631 18.7885 18.7444 18.8533L20.2444 19.712L20.25 16.1289ZM21.75 11.6289C21.75 10.9614 21.5521 10.3089 21.1812 9.75386C20.8104 9.19884 20.2833 8.76626 19.6666 8.51081C19.0499 8.25537 18.3713 8.18853 17.7166 8.31876C17.0619 8.44898 16.4605 8.77042 15.9885 9.24242C15.5165 9.71442 15.1951 10.3158 15.0648 10.9705C14.9346 11.6252 15.0015 12.3038 15.2569 12.9205C15.5124 13.5372 15.9449 14.0643 16.5 14.4351C17.055 14.806 17.7075 15.0039 18.375 15.0039C18.8182 15.0039 19.2571 14.9166 19.6666 14.747C20.076 14.5774 20.4481 14.3288 20.7615 14.0154C21.0749 13.702 21.3235 13.3299 21.4931 12.9205C21.6627 12.511 21.75 12.0721 21.75 11.6289Z" fill="#41B5AC"/>
</svg>
