<svg width="250" height="250" viewBox="0 0 250 250" fill="none" xmlns="http://www.w3.org/2000/svg">
<path d="M20.9951 215.828H230.155" stroke="#263238" stroke-width="0.5" stroke-linecap="round" stroke-linejoin="round"/>
<path d="M139.5 56.6955V48.8455L133.62 48.3455C133.276 47.1178 132.79 45.9347 132.17 44.8205L135.965 40.3205L130.415 34.7705L125.915 38.5655C124.81 37.9435 123.635 37.4551 122.415 37.1105L121.915 31.2305H114L113.5 37.1105C112.28 37.4551 111.105 37.9435 110 38.5655L105.5 34.7705L99.95 40.3205L103.745 44.8205C103.125 45.9347 102.639 47.1178 102.295 48.3455L96.415 48.8455V56.6955L102.295 57.1955C102.641 58.4146 103.127 59.5892 103.745 60.6955L99.95 65.1955L105.5 70.7455L110 66.9505C111.105 67.5724 112.28 68.0609 113.5 68.4055L114 74.2855H121.85L122.35 68.4055C123.578 68.0613 124.762 67.5729 125.875 66.9505L130.375 70.7455L135.925 65.1955L132.13 60.6955C132.748 59.5892 133.234 58.4146 133.58 57.1955L139.5 56.6955ZM117.95 61.8905C116.146 61.8905 114.383 61.3556 112.883 60.3535C111.383 59.3514 110.215 57.927 109.524 56.2605C108.834 54.5941 108.653 52.7604 109.005 50.9912C109.357 49.2221 110.226 47.5971 111.501 46.3217C112.777 45.0462 114.402 44.1776 116.171 43.8257C117.94 43.4738 119.774 43.6544 121.44 44.3447C123.107 45.035 124.531 46.2039 125.533 47.7037C126.535 49.2034 127.07 50.9667 127.07 52.7705C127.069 53.9696 126.832 55.1569 126.373 56.2644C125.913 57.3719 125.239 58.3779 124.39 59.2249C123.541 60.0719 122.534 60.7433 121.425 61.2007C120.317 61.658 119.129 61.8924 117.93 61.8905H117.95Z" stroke="#263238" stroke-width="0.5" stroke-linecap="round" stroke-linejoin="round"/>
<path d="M223.845 133.422V129.662L221.025 129.417C220.859 128.829 220.625 128.262 220.33 127.727L222.15 125.562L219.5 122.902L217.34 124.722C216.806 124.424 216.238 124.191 215.65 124.027L215.405 121.207H211.64L211.4 124.027C210.81 124.19 210.243 124.423 209.71 124.722L207.545 122.902L204.885 125.562L206.705 127.727C206.405 128.261 206.17 128.828 206.005 129.417L203.185 129.662V133.422L206.005 133.667C206.17 134.256 206.405 134.823 206.705 135.357L204.87 137.502L207.53 140.162L209.695 138.342C210.228 138.641 210.795 138.874 211.385 139.037L211.625 141.857H215.39L215.635 139.037C216.223 138.873 216.791 138.64 217.325 138.342L219.485 140.162L222.15 137.502L220.33 135.337C220.625 134.802 220.859 134.235 221.025 133.647L223.845 133.422ZM213.51 135.922C212.644 135.923 211.798 135.667 211.078 135.187C210.357 134.707 209.796 134.024 209.464 133.225C209.132 132.425 209.045 131.546 209.213 130.697C209.381 129.848 209.798 129.068 210.409 128.455C211.021 127.843 211.8 127.426 212.649 127.256C213.498 127.087 214.378 127.174 215.178 127.505C215.977 127.836 216.661 128.396 217.142 129.116C217.623 129.835 217.88 130.682 217.88 131.547C217.879 132.122 217.765 132.69 217.545 133.221C217.324 133.751 217.001 134.233 216.595 134.639C216.188 135.045 215.705 135.367 215.174 135.586C214.643 135.805 214.074 135.918 213.5 135.917L213.51 135.922Z" stroke="#263238" stroke-width="0.5" stroke-linecap="round" stroke-linejoin="round"/>
<path d="M221 64.8995C221.399 63.1715 221.344 61.3695 220.84 59.6692C220.335 57.969 219.399 56.4284 218.122 55.1977C216.845 53.967 215.27 53.0881 213.553 52.6468C211.835 52.2055 210.032 52.2168 208.32 52.6795C207.277 50.8299 205.664 49.3669 203.722 48.5085C201.78 47.6502 199.612 47.4425 197.542 47.9164C195.472 48.3903 193.611 49.5205 192.235 51.1384C190.86 52.7563 190.044 54.7753 189.91 56.8945C188.822 56.6864 187.702 56.7055 186.621 56.9506C185.541 57.1957 184.523 57.6615 183.631 58.3188C182.738 58.9761 181.992 59.8107 181.438 60.7702C180.884 61.7297 180.534 62.7934 180.41 63.8945C179.296 64.0118 178.265 64.5406 177.52 65.3776C176.775 66.2146 176.369 67.2995 176.381 68.4201C176.394 69.5406 176.824 70.6162 177.587 71.4363C178.351 72.2565 179.393 72.7622 180.51 72.8545H218.15C219.072 72.8478 219.969 72.5581 220.721 72.0248C221.473 71.4914 222.042 70.7401 222.353 69.8724C222.664 69.0047 222.701 68.0624 222.459 67.1731C222.217 66.2837 221.708 65.4901 221 64.8995V64.8995Z" stroke="#263238" stroke-width="0.5" stroke-linecap="round" stroke-linejoin="round"/>
<path d="M200.314 69.4141V79.7891" stroke="#263238" stroke-width="0.5" stroke-linecap="round" stroke-linejoin="round"/>
<path d="M200.314 63.1953V67.3403" stroke="#263238" stroke-width="0.5" stroke-linecap="round" stroke-linejoin="round"/>
<path d="M200.314 59.3164V61.5364" stroke="#263238" stroke-width="0.5" stroke-linecap="round" stroke-linejoin="round"/>
<path d="M198.354 78.582L200.314 81.007L202.274 78.582" stroke="#263238" stroke-width="0.5" stroke-linecap="round" stroke-linejoin="round"/>
<path d="M106.32 186.575C106.718 184.847 106.661 183.045 106.156 181.345C105.651 179.645 104.714 178.104 103.437 176.874C102.16 175.643 100.585 174.765 98.8675 174.323C97.1497 173.882 95.3469 173.893 93.6346 174.355C92.5926 172.504 90.9798 171.04 89.0371 170.181C87.0944 169.322 84.926 169.114 82.8555 169.589C80.7851 170.064 78.9237 171.195 77.5493 172.815C76.1749 174.434 75.3612 176.455 75.2296 178.575C74.7352 178.48 74.2331 178.432 73.7296 178.43C71.7516 178.429 69.8424 179.156 68.3667 180.473C66.8909 181.79 65.9522 183.605 65.7296 185.57C64.6152 185.687 63.5843 186.215 62.8388 187.052C62.0932 187.888 61.6866 188.973 61.6985 190.093C61.7104 191.214 62.1399 192.29 62.903 193.11C63.6661 193.931 64.7079 194.437 65.8246 194.53H103.5C104.42 194.52 105.315 194.228 106.065 193.694C106.814 193.16 107.382 192.408 107.691 191.541C108 190.674 108.035 189.733 107.793 188.845C107.55 187.957 107.041 187.165 106.335 186.575H106.32Z" stroke="#263238" stroke-width="0.5" stroke-linecap="round" stroke-linejoin="round"/>
<path d="M85.6191 192.577V182.207" stroke="#263238" stroke-width="0.5" stroke-linecap="round" stroke-linejoin="round"/>
<path d="M85.6191 198.802V194.652" stroke="#263238" stroke-width="0.5" stroke-linecap="round" stroke-linejoin="round"/>
<path d="M85.6191 202.681V200.461" stroke="#263238" stroke-width="0.5" stroke-linecap="round" stroke-linejoin="round"/>
<path d="M87.5802 183.417L85.6202 180.992L83.6602 183.417" stroke="#263238" stroke-width="0.5" stroke-linecap="round" stroke-linejoin="round"/>
<path d="M26.7401 54.9492H152.465C153.027 54.9492 153.567 55.1726 153.964 55.5702C154.362 55.9677 154.585 56.507 154.585 57.0692V62.9992H24.6201V57.0692C24.6201 56.507 24.8435 55.9677 25.2411 55.5702C25.6386 55.1726 26.1779 54.9492 26.7401 54.9492V54.9492Z" fill="#41B5AC" stroke="#263238" stroke-width="0.5" stroke-linecap="round" stroke-linejoin="round"/>
<path d="M161.666 64.4844H30.3105V156.919H161.666V64.4844Z" fill="white" stroke="#263238" stroke-width="0.5" stroke-linecap="round" stroke-linejoin="round"/>
<path d="M163.675 58.9688C163.675 59.3643 163.558 59.751 163.338 60.0799C163.118 60.4088 162.806 60.6651 162.44 60.8165C162.075 60.9679 161.673 61.0075 161.285 60.9303C160.897 60.8532 160.54 60.6627 160.261 60.383C159.981 60.1033 159.79 59.7469 159.713 59.3589C159.636 58.971 159.676 58.5688 159.827 58.2034C159.978 57.8379 160.235 57.5256 160.564 57.3058C160.893 57.086 161.279 56.9688 161.675 56.9688C162.205 56.9688 162.714 57.1795 163.089 57.5545C163.464 57.9296 163.675 58.4383 163.675 58.9688Z" fill="white" stroke="#263238" stroke-width="0.5" stroke-linecap="round" stroke-linejoin="round"/>
<path d="M156.596 58.9688C156.596 59.3643 156.478 59.751 156.259 60.0799C156.039 60.4088 155.727 60.6651 155.361 60.8165C154.996 60.9679 154.593 61.0075 154.206 60.9303C153.818 60.8532 153.461 60.6627 153.181 60.383C152.902 60.1033 152.711 59.7469 152.634 59.3589C152.557 58.971 152.597 58.5688 152.748 58.2034C152.899 57.8379 153.156 57.5256 153.485 57.3058C153.813 57.086 154.2 56.9688 154.596 56.9688C155.126 56.9688 155.635 57.1795 156.01 57.5545C156.385 57.9296 156.596 58.4383 156.596 58.9688Z" fill="white" stroke="#263238" stroke-width="0.5" stroke-linecap="round" stroke-linejoin="round"/>
<path d="M149.5 58.9688C149.5 59.3643 149.383 59.751 149.163 60.0799C148.943 60.4088 148.631 60.6651 148.265 60.8165C147.9 60.9679 147.498 61.0075 147.11 60.9303C146.722 60.8532 146.365 60.6627 146.086 60.383C145.806 60.1033 145.616 59.7469 145.538 59.3589C145.461 58.971 145.501 58.5688 145.652 58.2034C145.804 57.8379 146.06 57.5256 146.389 57.3058C146.718 57.086 147.104 56.9688 147.5 56.9688C148.03 56.9688 148.539 57.1795 148.914 57.5545C149.289 57.9296 149.5 58.4383 149.5 58.9688Z" fill="white" stroke="#263238" stroke-width="0.5" stroke-linecap="round" stroke-linejoin="round"/>
<path d="M157.685 68.4492H152.485" stroke="#263238" stroke-linecap="round" stroke-linejoin="round"/>
<path d="M157.685 70.5586H152.485" stroke="#263238" stroke-linecap="round" stroke-linejoin="round"/>
<path d="M157.685 72.668H152.485" stroke="#263238" stroke-linecap="round" stroke-linejoin="round"/>
<path d="M39.4053 122.988H78.7703" stroke="#263238" stroke-linecap="round" stroke-linejoin="round"/>
<path d="M39.4053 126.094H78.7703" stroke="#263238" stroke-linecap="round" stroke-linejoin="round"/>
<path d="M39.4053 129.254H70.4453" stroke="#263238" stroke-linecap="round" stroke-linejoin="round"/>
<path d="M122.88 65.5234V65.7724" stroke="#263238" stroke-width="0.5" stroke-linecap="round" stroke-linejoin="round"/>
<path d="M122.88 67.2734V154.388" stroke="#263238" stroke-width="0.5" stroke-linecap="round" stroke-linejoin="round" stroke-dasharray="0.5 1.5"/>
<path d="M122.88 155.141V155.39" stroke="#263238" stroke-width="0.5" stroke-linecap="round" stroke-linejoin="round"/>
<path d="M31.8906 136.188H32.1396" stroke="#263238" stroke-width="0.5" stroke-linecap="round" stroke-linejoin="round"/>
<path d="M33.6348 136.188H158.655" stroke="#263238" stroke-width="0.5" stroke-linecap="round" stroke-linejoin="round" stroke-dasharray="0.5 1.5"/>
<path d="M159.405 136.188H159.654" stroke="#263238" stroke-width="0.5" stroke-linecap="round" stroke-linejoin="round"/>
<path d="M123.746 135.324H122.021V137.049H123.746V135.324Z" fill="white" stroke="#263238" stroke-width="0.5" stroke-linecap="round" stroke-linejoin="round"/>
<path d="M115.995 119.621H92.9648" stroke="#263238" stroke-width="0.5" stroke-linecap="round" stroke-linejoin="round"/>
<path d="M116.44 130.268C116.44 130.268 116.44 119.562 104.48 119.562C92.52 119.562 92.5 130.268 92.5 130.268" stroke="#263238" stroke-width="0.5" stroke-linecap="round" stroke-linejoin="round"/>
<path d="M116.44 131.278C116.997 131.278 117.45 130.826 117.45 130.268C117.45 129.71 116.997 129.258 116.44 129.258C115.882 129.258 115.43 129.71 115.43 130.268C115.43 130.826 115.882 131.278 116.44 131.278Z" fill="#41B5AC" stroke="#263238" stroke-width="0.5" stroke-linecap="round" stroke-linejoin="round"/>
<path d="M91.5 130.27C91.5 130.072 91.5587 129.878 91.6685 129.714C91.7784 129.55 91.9346 129.421 92.1173 129.346C92.3 129.27 92.5011 129.25 92.6951 129.289C92.8891 129.327 93.0673 129.423 93.2071 129.562C93.347 129.702 93.4422 129.88 93.4808 130.074C93.5194 130.268 93.4996 130.469 93.4239 130.652C93.3482 130.835 93.22 130.991 93.0556 131.101C92.8911 131.211 92.6978 131.27 92.5 131.27C92.2348 131.27 91.9804 131.164 91.7929 130.977C91.6054 130.789 91.5 130.535 91.5 130.27Z" fill="#41B5AC" stroke="#263238" stroke-width="0.5" stroke-linecap="round" stroke-linejoin="round"/>
<path d="M115.555 120.449H117.325V118.679H115.555V120.449Z" fill="#41B5AC" stroke="#263238" stroke-width="0.5" stroke-linecap="round" stroke-linejoin="round"/>
<path d="M103.595 120.449H105.365V118.679H103.595V120.449Z" fill="#41B5AC" stroke="#263238" stroke-width="0.5" stroke-linecap="round" stroke-linejoin="round"/>
<path d="M91.6353 120.449H93.4053V118.679H91.6353V120.449Z" fill="#41B5AC" stroke="#263238" stroke-width="0.5" stroke-linecap="round" stroke-linejoin="round"/>
<path d="M53.7149 87.4331V83.8931L51.0699 83.6681C50.9129 83.1149 50.6931 82.5814 50.4149 82.0781L52.1249 80.0481L49.6249 77.5481L47.5899 79.2581C47.0884 78.9763 46.5545 78.7563 45.9999 78.6031L45.7699 75.9531H42.2399L42.0099 78.6031C41.4567 78.7557 40.9244 78.9757 40.4249 79.2581L38.3899 77.5481L35.8899 80.0481L37.5999 82.0781C37.3196 82.5804 37.0998 83.1141 36.9449 83.6681L34.2949 83.8931V87.4331L36.9449 87.6581C37.1006 88.2118 37.3205 88.7454 37.5999 89.2481L35.8899 91.2781L38.3899 93.7781L40.4249 92.0681C40.9213 92.3498 41.4502 92.5698 41.9999 92.7231L42.2299 95.3731H45.7649L45.9949 92.7231C46.5477 92.5695 47.08 92.3496 47.5799 92.0681L49.6149 93.7781L52.1149 91.2781L50.4049 89.2481C50.6823 88.7444 50.902 88.211 51.0599 87.6581L53.7149 87.4331ZM43.9999 89.7731C43.187 89.7731 42.3924 89.5321 41.7165 89.0805C41.0406 88.6288 40.5139 87.987 40.2028 87.236C39.8917 86.485 39.8103 85.6586 39.9689 84.8613C40.1275 84.064 40.5189 83.3317 41.0937 82.7569C41.6685 82.1821 42.4008 81.7907 43.1981 81.6321C43.9954 81.4735 44.8217 81.5549 45.5728 81.866C46.3238 82.1771 46.9657 82.7038 47.4173 83.3797C47.8689 84.0556 48.1099 84.8502 48.1099 85.6631C48.1099 86.7532 47.6769 87.7986 46.9061 88.5693C46.1354 89.3401 45.09 89.7731 43.9999 89.7731Z" fill="#41B5AC" stroke="#263238" stroke-width="0.5" stroke-linecap="round" stroke-linejoin="round"/>
<path d="M65.7354 95.365V92.945L63.9204 92.785C63.816 92.4068 63.6666 92.0426 63.4754 91.7L64.6454 90.31L62.9304 88.6L61.5404 89.77C61.197 89.5793 60.833 89.4283 60.4554 89.32L60.3004 87.5H57.8804L57.7204 89.315C57.3428 89.4233 56.9788 89.5743 56.6354 89.765L55.2454 88.595L53.5304 90.305L54.7054 91.695C54.5106 92.0364 54.3594 92.4009 54.2554 92.78L52.4404 92.94V95.36L54.2554 95.515C54.3585 95.8944 54.5097 96.259 54.7054 96.6L53.5304 98L55.2454 99.71L56.6354 98.54C56.9788 98.7307 57.3428 98.8817 57.7204 98.99L57.8804 100.8H60.3004L60.4554 98.99C60.833 98.8817 61.197 98.7307 61.5404 98.54L62.9304 99.71L64.6454 98L63.5004 96.605C63.6925 96.2629 63.842 95.8985 63.9454 95.52L65.7354 95.365ZM59.0904 96.965C58.5333 96.966 57.9883 96.8016 57.5246 96.4927C57.0609 96.1837 56.6994 95.7441 56.4857 95.2296C56.272 94.715 56.2158 94.1486 56.3243 93.6021C56.4327 93.0555 56.7009 92.5535 57.0949 92.1595C57.4889 91.7655 57.991 91.4973 58.5375 91.3888C59.084 91.2804 59.6504 91.3366 60.165 91.5502C60.6796 91.7639 61.1192 92.1255 61.4281 92.5892C61.737 93.0529 61.9014 93.5978 61.9004 94.155C61.8991 94.8999 61.6026 95.6138 61.0759 96.1405C60.5492 96.6672 59.8353 96.9637 59.0904 96.965V96.965Z" fill="#41B5AC" stroke="#263238" stroke-width="0.5" stroke-linecap="round" stroke-linejoin="round"/>
<path d="M127.82 142.07H147.185" stroke="#263238" stroke-linecap="round" stroke-linejoin="round"/>
<path d="M127.82 145.176H147.185" stroke="#263238" stroke-linecap="round" stroke-linejoin="round"/>
<path d="M127.82 148.336H138.86" stroke="#263238" stroke-linecap="round" stroke-linejoin="round"/>
<path d="M102.305 149.625H92.1104C91.4473 149.625 90.8114 149.362 90.3426 148.893C89.8737 148.424 89.6104 147.788 89.6104 147.125C89.6104 146.462 89.8737 145.826 90.3426 145.357C90.8114 144.888 91.4473 144.625 92.1104 144.625H102.305C102.968 144.625 103.604 144.888 104.073 145.357C104.542 145.826 104.805 146.462 104.805 147.125C104.805 147.788 104.542 148.424 104.073 148.893C103.604 149.362 102.968 149.625 102.305 149.625Z" fill="#41B5AC" stroke="#263238" stroke-width="0.5" stroke-linecap="round" stroke-linejoin="round"/>
<path d="M121.305 149.625H111.11C110.447 149.625 109.811 149.362 109.343 148.893C108.874 148.424 108.61 147.788 108.61 147.125C108.61 146.462 108.874 145.826 109.343 145.357C109.811 144.888 110.447 144.625 111.11 144.625H121.305C121.968 144.625 122.604 144.888 123.073 145.357C123.542 145.826 123.805 146.462 123.805 147.125C123.805 147.788 123.542 148.424 123.073 148.893C122.604 149.362 121.968 149.625 121.305 149.625Z" fill="#41B5AC" stroke="#263238" stroke-width="0.5" stroke-linecap="round" stroke-linejoin="round"/>
<path d="M150.855 95.9844H129.235V117.604H150.855V95.9844Z" fill="white" stroke="#263238" stroke-width="0.5" stroke-linecap="round" stroke-linejoin="round"/>
<path d="M129.235 95.9844L150.855 117.604" stroke="#263238" stroke-width="0.5" stroke-linecap="round" stroke-linejoin="round"/>
<path d="M150.855 95.9844L129.235 117.604" stroke="#263238" stroke-width="0.5" stroke-linecap="round" stroke-linejoin="round"/>
<path d="M137.715 71.4375V76.4825L135.49 78.7075H130.445V71.4375H137.715Z" fill="white" stroke="#263238" stroke-width="0.5" stroke-linecap="round" stroke-linejoin="round"/>
<path d="M137.715 76.4844L135.49 78.7094V76.4844H137.715Z" fill="white" stroke="#263238" stroke-width="0.5" stroke-linecap="round" stroke-linejoin="round"/>
<path d="M60.3999 110.453V115.498L58.1749 117.728H53.1299V110.453H60.3999Z" fill="white" stroke="#263238" stroke-width="0.5" stroke-linecap="round" stroke-linejoin="round"/>
<path d="M60.3998 115.5L58.1748 117.73V115.5H60.3998Z" fill="white" stroke="#263238" stroke-width="0.5" stroke-linecap="round" stroke-linejoin="round"/>
<path d="M32.9303 141.539V146.584L30.7053 148.809H25.6553V141.539H32.9303Z" fill="white" stroke="#263238" stroke-width="0.5" stroke-linecap="round" stroke-linejoin="round"/>
<path d="M32.9301 146.586L30.7051 148.811V146.586H32.9301Z" fill="white" stroke="#263238" stroke-width="0.5" stroke-linecap="round" stroke-linejoin="round"/>
<path d="M174.335 83.1406H147.505V99.9556H174.335V83.1406Z" fill="#263238" stroke="#263238" stroke-width="0.5" stroke-linecap="round" stroke-linejoin="round"/>
<path d="M174.335 83.1406H147.505V85.6956H174.335V83.1406Z" fill="#41B5AC" stroke="#263238" stroke-width="0.5" stroke-linecap="round" stroke-linejoin="round"/>
<path d="M150.24 87.8516H157.1" stroke="white" stroke-width="0.5" stroke-linecap="round" stroke-linejoin="round"/>
<path d="M153.67 89.7656H165.54" stroke="white" stroke-width="0.5" stroke-linecap="round" stroke-linejoin="round"/>
<path d="M152.154 91.5508H155.649" stroke="white" stroke-width="0.5" stroke-linecap="round" stroke-linejoin="round"/>
<path d="M153.67 93.6562H161.665" stroke="white" stroke-width="0.5" stroke-linecap="round" stroke-linejoin="round"/>
<path d="M150.24 95.5664H157.1" stroke="white" stroke-width="0.5" stroke-linecap="round" stroke-linejoin="round"/>
<path d="M73.4296 150.797H46.5996V167.612H73.4296V150.797Z" fill="#263238" stroke="#263238" stroke-width="0.5" stroke-linecap="round" stroke-linejoin="round"/>
<path d="M73.4296 150.797H46.5996V153.352H73.4296V150.797Z" fill="#41B5AC" stroke="#263238" stroke-width="0.5" stroke-linecap="round" stroke-linejoin="round"/>
<path d="M49.3398 155.512H56.1948" stroke="white" stroke-width="0.5" stroke-linecap="round" stroke-linejoin="round"/>
<path d="M52.7646 157.422H64.6347" stroke="white" stroke-width="0.5" stroke-linecap="round" stroke-linejoin="round"/>
<path d="M51.25 159.207H54.745" stroke="white" stroke-width="0.5" stroke-linecap="round" stroke-linejoin="round"/>
<path d="M52.7646 161.312H60.7596" stroke="white" stroke-width="0.5" stroke-linecap="round" stroke-linejoin="round"/>
<path d="M49.3398 163.227H56.1948" stroke="white" stroke-width="0.5" stroke-linecap="round" stroke-linejoin="round"/>
<path d="M83.4998 29H58.8498C58.5611 29.0013 58.2846 29.1166 58.0805 29.3207C57.8763 29.5248 57.7611 29.8013 57.7598 30.09V41.59C57.7611 41.8782 57.8765 42.1542 58.0808 42.3575C58.2851 42.5609 58.5615 42.675 58.8498 42.675H69.8998L71.1598 47.175L72.4248 42.675H83.4998C83.788 42.675 84.0645 42.5609 84.2687 42.3575C84.473 42.1542 84.5884 41.8782 84.5898 41.59V30.09C84.5884 29.8013 84.4732 29.5248 84.2691 29.3207C84.0649 29.1166 83.7884 29.0013 83.4998 29V29Z" fill="#41B5AC" stroke="#263238" stroke-width="0.5" stroke-linecap="round" stroke-linejoin="round"/>
<path d="M61.8496 32.2891H80.4746" stroke="#263238" stroke-linecap="round" stroke-linejoin="round"/>
<path d="M61.8496 34.6484H80.4746" stroke="#263238" stroke-linecap="round" stroke-linejoin="round"/>
<path d="M61.8496 37.0117H80.4746" stroke="#263238" stroke-linecap="round" stroke-linejoin="round"/>
<path d="M61.8496 39.3711H75.8846" stroke="#263238" stroke-linecap="round" stroke-linejoin="round"/>
<path d="M123.935 110.79C121.29 111.015 117.935 107.855 117.935 107.855C117.87 107.921 117.791 107.972 117.704 108.002C117.617 108.033 117.524 108.043 117.432 108.031C117.34 108.02 117.253 107.987 117.176 107.935C117.099 107.884 117.035 107.815 116.99 107.735C116.56 107.115 114.695 105.68 114.59 104.44C114.485 103.2 116.685 101.19 116.685 101.19C114.99 101.65 114.81 100.655 114.81 100.655C114.81 100.655 117.665 98.2998 118.665 98.2348C119.055 98.2098 120.755 99.1898 122.4 100.51C124.12 101.895 127.35 106.77 127.35 106.77C127.35 106.77 138.275 114.705 141.035 116.735C144.68 119.415 149 124.17 149 124.17C149 124.17 163.5 130.71 167.5 134.305L162.09 147.115C162.09 147.115 148.905 138.28 147.59 136.04C146.275 133.8 144.955 135.145 143.635 133.68C142.315 132.215 141.05 130.54 141.05 130.54C138.702 129.406 136.571 127.87 134.755 126C131.675 122.835 128.96 118 127.255 115.09C126.372 113.497 125.252 112.047 123.935 110.79V110.79Z" fill="white" stroke="#263238" stroke-width="0.5" stroke-linecap="round" stroke-linejoin="round"/>
<path d="M124.74 108.92C124.74 108.92 120.805 107.965 120.465 105.37C120.315 104.712 120.027 104.094 119.62 103.555C119.62 103.555 115.95 103.375 116.18 101.88L121.08 101.445C122.864 102.131 124.366 103.395 125.345 105.035" fill="white"/>
<path d="M124.74 108.92C124.74 108.92 120.805 107.965 120.465 105.37C120.315 104.712 120.027 104.094 119.62 103.555C119.62 103.555 115.95 103.375 116.18 101.88L121.08 101.445C122.864 102.131 124.366 103.395 125.345 105.035" stroke="#263238" stroke-width="0.5" stroke-linecap="round" stroke-linejoin="round"/>
<path d="M117.93 107.855C118.104 107.531 118.162 107.156 118.095 106.795C118.095 106.795 119.175 106.595 119.055 105.64C119.055 105.64 120.655 105.445 119.62 103.555" stroke="#263238" stroke-width="0.5" stroke-linecap="round" stroke-linejoin="round"/>
<path d="M119.055 105.641C119.055 105.641 116.9 104.046 116.66 103.316" stroke="#263238" stroke-width="0.5" stroke-linecap="round" stroke-linejoin="round"/>
<path d="M118.095 106.797C118.095 106.797 115.8 105.397 115.76 104.582" stroke="#263238" stroke-width="0.5" stroke-linecap="round" stroke-linejoin="round"/>
<path d="M118.62 99.6055C118.62 99.6055 117.89 100.915 116.68 101.19" stroke="#263238" stroke-width="0.5" stroke-linecap="round" stroke-linejoin="round"/>
<path d="M118.255 100.117C118.639 100.318 119.001 100.557 119.335 100.832" stroke="#263238" stroke-width="0.5" stroke-linecap="round" stroke-linejoin="round"/>
<path d="M202.06 144.4C196.403 142.005 190.567 140.056 184.605 138.57C175.825 136.515 161.605 134.68 161.605 134.68C161.605 134.68 165.515 174.58 164.485 176.98C163.455 179.38 157.275 187.44 157.275 187.44C157.275 187.44 190.72 200.48 196.55 201.59C202.38 202.7 199.34 182.465 199.34 182.465C199.34 182.465 205.5 156.745 202.06 144.4Z" fill="#263238"/>
<path d="M190.055 140.116C190.055 140.116 190.85 141.616 188.76 142.401C183.345 144.401 177.575 142.636 178.19 140.516C178.425 139.706 179.765 140.516 179.69 137.516C179.653 137.053 179.529 136.602 179.325 136.186C178.943 135.374 178.482 134.602 177.95 133.881C177.372 133.077 176.753 132.305 176.095 131.566C176.095 131.566 184.69 126.066 191.065 131.566C191.055 131.541 188.685 132.741 190.055 140.116Z" fill="white" stroke="#263238" stroke-width="0.5" stroke-linecap="round" stroke-linejoin="round"/>
<path d="M200.705 211.182C197.32 216.682 180.145 219.287 170.77 219.042C161.395 218.797 134.42 206.042 132.59 203.322C130.895 200.822 126.73 192.537 133.15 187.532C133.695 187.111 134.274 186.736 134.88 186.412C139.275 184.032 168.505 191.537 168.505 191.537C168.505 191.537 170.315 190.392 170.98 190.477C173.02 190.737 174.48 192.387 178.6 193.562C181.485 194.387 189.36 191.217 194.39 193.942C194.949 194.24 195.463 194.614 195.92 195.052C200.62 199.542 204.085 205.667 200.705 211.182Z" fill="#41B5AC"/>
<path opacity="0.3" d="M194.39 193.942C189.235 193.597 184.64 194.677 181.43 196.572C177.625 198.822 159.655 207.477 159.655 207.477C159.695 206.547 160.695 204.672 160.695 204.672C159.005 203.172 154.585 201.997 154.585 201.997C151.16 199.072 137.585 190.347 133.15 187.532C133.695 187.111 134.274 186.736 134.88 186.412C139.275 184.032 168.505 191.537 168.505 191.537C168.505 191.537 170.315 190.392 170.98 190.477C173.02 190.737 174.48 192.387 178.6 193.562C181.5 194.387 189.36 191.217 194.39 193.942Z" fill="black" fill-opacity="0.7"/>
<path d="M200.705 211.182C197.32 216.682 180.145 219.287 170.77 219.042C161.395 218.797 134.42 206.042 132.59 203.322C130.895 200.822 126.73 192.537 133.15 187.532C133.695 187.111 134.274 186.736 134.88 186.412C139.275 184.032 168.505 191.537 168.505 191.537C168.505 191.537 170.315 190.392 170.98 190.477C173.02 190.737 174.48 192.387 178.6 193.562C181.485 194.387 189.36 191.217 194.39 193.942C194.949 194.24 195.463 194.614 195.92 195.052C200.62 199.542 204.085 205.667 200.705 211.182Z" stroke="#263238" stroke-width="0.5" stroke-linecap="round" stroke-linejoin="round"/>
<path d="M195.435 216.16L195.865 218.045C195.865 218.045 194.715 221.305 189.66 221.84C184.605 222.375 181.61 223.49 179.16 223.635C177.88 223.736 176.592 223.716 175.315 223.575L174.815 222.835L195.435 216.16Z" fill="white" stroke="#263238" stroke-width="0.5" stroke-linecap="round" stroke-linejoin="round"/>
<path d="M166.08 215.96L174.84 222.835C179.062 222.475 183.257 221.847 187.4 220.955V220.955C191.55 219.995 195.175 218.62 195.37 216.73C195.675 213.86 192.605 213.075 188.96 213.185C188.28 213.185 187.58 213.255 186.875 213.325C181.04 213.95 173.62 210.73 173.62 210.73L166.08 215.96Z" fill="#263238"/>
<path opacity="0.3" d="M195.375 216.662C193.674 217.294 192.043 218.098 190.505 219.062C190.505 219.062 182.37 223.247 169.865 218.937L166.08 215.962L173.62 210.727C173.62 210.727 181.035 213.952 186.875 213.322C187.58 213.247 188.28 213.197 188.96 213.182C192.58 213.072 195.625 213.842 195.375 216.662Z" fill="black" fill-opacity="0.7"/>
<path d="M166.08 215.96L174.84 222.835C179.062 222.475 183.257 221.847 187.4 220.955V220.955C191.55 219.995 195.175 218.62 195.37 216.73C195.675 213.86 192.605 213.075 188.96 213.185C188.28 213.185 187.58 213.255 186.875 213.325C181.04 213.95 173.62 210.73 173.62 210.73L166.08 215.96Z" stroke="#263238" stroke-width="0.5" stroke-linecap="round" stroke-linejoin="round"/>
<path d="M174.245 218.67C172.665 218.925 174.4 222.17 176.54 221.17C178.68 220.17 175.825 218.41 174.245 218.67Z" fill="white"/>
<path opacity="0.2" d="M177.21 220.655C176.066 220.516 174.929 220.317 173.805 220.06C173.505 219.425 173.575 218.775 174.245 218.67C175.57 218.45 177.8 219.675 177.21 220.655Z" fill="black" fill-opacity="0.7"/>
<path d="M174.245 218.67C172.665 218.925 174.4 222.17 176.54 221.17C178.68 220.17 175.825 218.41 174.245 218.67Z" stroke="#263238" stroke-width="0.5" stroke-linecap="round" stroke-linejoin="round"/>
<path d="M187.4 220.952C191.55 219.992 195.175 218.617 195.37 216.727C195.675 213.857 192.605 213.072 188.96 213.182C188.8 213.337 185.265 216.752 187.4 220.952Z" fill="white"/>
<path opacity="0.3" d="M195.375 216.662C193.675 217.295 192.043 218.099 190.505 219.062C189.409 219.569 188.261 219.953 187.08 220.207C185.68 216.357 188.81 213.327 188.96 213.182C192.58 213.072 195.625 213.842 195.375 216.662Z" fill="black" fill-opacity="0.7"/>
<path d="M187.4 220.952C191.55 219.992 195.175 218.617 195.37 216.727C195.675 213.857 192.605 213.072 188.96 213.182C188.8 213.337 185.265 216.752 187.4 220.952Z" stroke="#263238" stroke-width="0.5" stroke-linecap="round" stroke-linejoin="round"/>
<path d="M184.44 217.386H184.465C184.522 217.389 184.579 217.38 184.632 217.361C184.686 217.341 184.735 217.311 184.777 217.273C184.819 217.234 184.853 217.188 184.876 217.136C184.9 217.084 184.913 217.028 184.915 216.971C185.057 215.743 185.582 214.59 186.415 213.676C186.455 213.636 186.487 213.589 186.509 213.536C186.531 213.484 186.542 213.428 186.542 213.371C186.542 213.315 186.531 213.258 186.509 213.206C186.487 213.154 186.455 213.106 186.415 213.066C186.334 212.986 186.224 212.941 186.11 212.941C185.996 212.941 185.886 212.986 185.805 213.066C184.825 214.13 184.216 215.482 184.07 216.921C184.06 217.031 184.093 217.141 184.162 217.228C184.231 217.315 184.33 217.371 184.44 217.386Z" fill="white" stroke="#263238" stroke-width="0.5" stroke-linecap="round" stroke-linejoin="round"/>
<path d="M182.705 217.5H182.74C182.797 217.501 182.853 217.491 182.906 217.471C182.959 217.45 183.008 217.419 183.049 217.379C183.089 217.34 183.122 217.293 183.145 217.24C183.167 217.188 183.179 217.132 183.18 217.075C183.279 215.826 183.741 214.634 184.51 213.645C184.552 213.602 184.584 213.55 184.606 213.494C184.627 213.438 184.636 213.377 184.633 213.317C184.629 213.257 184.614 213.198 184.586 213.144C184.559 213.091 184.521 213.043 184.474 213.005C184.428 212.967 184.374 212.939 184.316 212.922C184.258 212.906 184.197 212.902 184.137 212.911C184.078 212.919 184.02 212.94 183.969 212.971C183.918 213.003 183.874 213.045 183.84 213.095C182.947 214.233 182.416 215.612 182.315 217.055C182.31 217.165 182.349 217.272 182.421 217.355C182.494 217.438 182.595 217.49 182.705 217.5Z" fill="white" stroke="#263238" stroke-width="0.5" stroke-linecap="round" stroke-linejoin="round"/>
<path d="M180.63 217.27C180.687 217.275 180.744 217.27 180.798 217.253C180.852 217.236 180.903 217.209 180.946 217.173C180.99 217.137 181.026 217.092 181.053 217.042C181.079 216.991 181.095 216.936 181.1 216.88C181.235 215.38 182.525 213.415 182.54 213.38C182.603 213.283 182.626 213.166 182.604 213.053C182.581 212.94 182.515 212.84 182.42 212.775C182.324 212.712 182.208 212.689 182.095 212.712C181.983 212.734 181.884 212.8 181.82 212.895C181.76 212.98 180.39 215.04 180.235 216.78C180.227 216.838 180.232 216.898 180.248 216.954C180.264 217.011 180.291 217.064 180.328 217.109C180.365 217.155 180.411 217.193 180.463 217.221C180.514 217.248 180.572 217.265 180.63 217.27V217.27Z" fill="white" stroke="#263238" stroke-width="0.5" stroke-linecap="round" stroke-linejoin="round"/>
<path d="M178.67 217.066C178.708 217.07 178.747 217.07 178.785 217.066C178.841 217.056 178.895 217.036 178.944 217.006C178.992 216.976 179.034 216.936 179.067 216.89C179.1 216.843 179.124 216.791 179.136 216.735C179.149 216.679 179.15 216.622 179.14 216.566C178.835 214.726 180.545 213.151 180.56 213.136C180.617 213.056 180.645 212.959 180.639 212.861C180.634 212.763 180.596 212.67 180.531 212.596C180.467 212.523 180.379 212.474 180.282 212.456C180.186 212.439 180.087 212.454 180 212.501C179.915 212.576 177.92 214.406 178.305 216.721C178.324 216.808 178.368 216.889 178.434 216.95C178.499 217.012 178.581 217.052 178.67 217.066V217.066Z" fill="white" stroke="#263238" stroke-width="0.5" stroke-linecap="round" stroke-linejoin="round"/>
<path d="M176.54 216.552C176.586 216.56 176.634 216.56 176.68 216.552C176.788 216.526 176.881 216.46 176.942 216.367C177.002 216.274 177.025 216.161 177.005 216.052C176.63 214.412 178.245 212.552 178.265 212.552C178.34 212.466 178.378 212.353 178.37 212.239C178.363 212.125 178.31 212.018 178.225 211.942C178.183 211.904 178.133 211.875 178.08 211.856C178.026 211.838 177.969 211.829 177.913 211.833C177.856 211.836 177.8 211.85 177.749 211.875C177.698 211.9 177.653 211.935 177.615 211.977C177.535 212.067 175.685 214.182 176.16 216.262C176.187 216.343 176.238 216.413 176.306 216.465C176.374 216.517 176.455 216.547 176.54 216.552Z" fill="white" stroke="#263238" stroke-width="0.5" stroke-linecap="round" stroke-linejoin="round"/>
<path d="M131.5 213.34L130.875 215.17C130.875 215.17 131.675 218.535 136.645 219.595C141.615 220.655 144.475 222.095 146.875 222.485C148.138 222.717 149.421 222.831 150.705 222.825L151.28 222.14L131.5 213.34Z" fill="white" stroke="#263238" stroke-width="0.5" stroke-linecap="round" stroke-linejoin="round"/>
<path d="M160.695 216.225L151.265 222.14C147.103 221.339 142.997 220.275 138.97 218.955V218.955C134.945 217.565 131.47 215.815 131.47 213.915C131.47 211.025 134.605 210.57 138.22 211.06C138.895 211.15 139.585 211.275 140.28 211.42C146.015 212.655 153.73 210.23 153.73 210.23L160.695 216.225Z" fill="#263238"/>
<path opacity="0.3" d="M160.695 216.226L155.15 219.726C150.653 218.33 146.711 215.553 143.88 211.791C147.222 211.718 150.54 211.198 153.745 210.246L160.695 216.226Z" fill="black" fill-opacity="0.7"/>
<path d="M160.695 216.225L151.265 222.14C147.103 221.339 142.997 220.275 138.97 218.955V218.955C134.945 217.565 131.47 215.815 131.47 213.915C131.47 211.025 134.605 210.57 138.22 211.06C138.895 211.15 139.585 211.275 140.28 211.42C146.015 212.655 153.73 210.23 153.73 210.23L160.695 216.225Z" stroke="#263238" stroke-width="0.5" stroke-linecap="round" stroke-linejoin="round"/>
<path d="M138.97 218.952C134.945 217.562 131.47 215.812 131.47 213.912C131.47 211.022 134.605 210.567 138.22 211.057C138.38 211.227 141.535 215.002 138.97 218.952Z" fill="white" stroke="#263238" stroke-width="0.5" stroke-linecap="round" stroke-linejoin="round"/>
<path d="M142.29 215.714H142.265C142.15 215.706 142.042 215.654 141.966 215.568C141.889 215.482 141.849 215.369 141.855 215.254C141.847 214.02 141.45 212.82 140.72 211.824C140.677 211.78 140.644 211.728 140.623 211.671C140.602 211.614 140.594 211.553 140.598 211.492C140.602 211.431 140.618 211.372 140.647 211.318C140.675 211.264 140.715 211.217 140.763 211.179C140.811 211.141 140.866 211.114 140.925 211.099C140.984 211.084 141.046 211.082 141.106 211.092C141.166 211.103 141.223 211.126 141.274 211.159C141.324 211.193 141.367 211.238 141.4 211.289C142.263 212.444 142.726 213.848 142.72 215.289C142.718 215.402 142.673 215.51 142.592 215.59C142.512 215.67 142.403 215.714 142.29 215.714Z" fill="white" stroke="#263238" stroke-width="0.5" stroke-linecap="round" stroke-linejoin="round"/>
<path d="M144 216H143.96C143.845 215.99 143.739 215.935 143.665 215.847C143.591 215.759 143.555 215.645 143.565 215.53C143.6 214.28 143.268 213.048 142.61 211.985C142.577 211.938 142.554 211.885 142.541 211.828C142.529 211.772 142.528 211.714 142.538 211.657C142.548 211.601 142.57 211.547 142.601 211.498C142.632 211.45 142.672 211.408 142.72 211.375C142.767 211.342 142.82 211.319 142.876 211.307C142.933 211.295 142.991 211.294 143.047 211.304C143.104 211.314 143.158 211.335 143.206 211.366C143.255 211.398 143.297 211.438 143.33 211.485C144.102 212.709 144.485 214.139 144.43 215.585C144.424 215.696 144.377 215.801 144.297 215.878C144.217 215.955 144.111 215.999 144 216Z" fill="white" stroke="#263238" stroke-width="0.5" stroke-linecap="round" stroke-linejoin="round"/>
<path d="M146.09 216.001C145.975 215.998 145.865 215.951 145.785 215.869C145.705 215.786 145.66 215.676 145.66 215.561C145.69 214.036 144.61 211.971 144.595 211.951C144.542 211.848 144.531 211.728 144.566 211.618C144.601 211.508 144.677 211.415 144.78 211.361C144.882 211.308 145.001 211.298 145.11 211.333C145.22 211.367 145.311 211.444 145.365 211.546C145.415 211.636 146.56 213.826 146.53 215.576C146.527 215.69 146.479 215.799 146.397 215.879C146.315 215.958 146.204 216.002 146.09 216.001V216.001Z" fill="white" stroke="#263238" stroke-width="0.5" stroke-linecap="round" stroke-linejoin="round"/>
<path d="M148.06 216.001H147.945C147.834 215.97 147.741 215.896 147.684 215.795C147.628 215.695 147.614 215.577 147.645 215.466C148.145 213.671 146.61 211.921 146.595 211.906C146.551 211.865 146.517 211.815 146.494 211.76C146.471 211.704 146.459 211.645 146.46 211.585C146.461 211.525 146.474 211.466 146.499 211.411C146.524 211.357 146.56 211.308 146.604 211.268C146.649 211.228 146.701 211.197 146.758 211.178C146.815 211.16 146.875 211.153 146.935 211.158C146.994 211.164 147.052 211.181 147.105 211.21C147.157 211.239 147.203 211.279 147.24 211.326C147.315 211.411 149.11 213.441 148.48 215.701C148.45 215.789 148.394 215.865 148.318 215.919C148.243 215.973 148.153 216.002 148.06 216.001Z" fill="white" stroke="#263238" stroke-width="0.5" stroke-linecap="round" stroke-linejoin="round"/>
<path d="M150.235 215.715C150.187 215.717 150.14 215.708 150.095 215.69C150.041 215.672 149.99 215.644 149.947 215.607C149.904 215.569 149.868 215.523 149.843 215.472C149.818 215.421 149.803 215.365 149.8 215.308C149.797 215.251 149.806 215.193 149.825 215.14C150.37 213.55 148.955 211.535 148.945 211.515C148.904 211.469 148.873 211.415 148.855 211.357C148.836 211.298 148.83 211.237 148.837 211.176C148.843 211.115 148.863 211.056 148.894 211.003C148.925 210.95 148.967 210.905 149.017 210.869C149.067 210.834 149.124 210.809 149.184 210.797C149.245 210.785 149.307 210.786 149.366 210.8C149.426 210.814 149.482 210.84 149.531 210.877C149.58 210.914 149.621 210.961 149.65 211.015C149.72 211.11 151.335 213.41 150.65 215.43C150.619 215.514 150.562 215.586 150.488 215.637C150.413 215.688 150.325 215.715 150.235 215.715V215.715Z" fill="white" stroke="#263238" stroke-width="0.5" stroke-linecap="round" stroke-linejoin="round"/>
<path d="M152.29 218.062C153.835 218.487 151.79 221.512 149.745 220.312C147.7 219.112 150.75 217.642 152.29 218.062Z" fill="white" stroke="#263238" stroke-width="0.5" stroke-linecap="round" stroke-linejoin="round"/>
<path d="M134.46 202C136.775 205.245 143.64 208.83 150.46 211.785C151.68 213.805 153.118 215.685 154.75 217.39C158.96 221.72 160.675 219.295 160.675 219.295C160.675 219.295 163.335 218.995 167.26 218.46C167.423 218.841 167.708 219.157 168.07 219.358C168.432 219.56 168.85 219.636 169.26 219.575C169.76 219.495 170.76 218.765 171.865 217.8C181.78 216.3 195.235 213.8 198.865 210.89" fill="#41B5AC"/>
<path d="M134.46 202C136.775 205.245 143.64 208.83 150.46 211.785C151.68 213.805 153.118 215.685 154.75 217.39C158.96 221.72 160.675 219.295 160.675 219.295C160.675 219.295 163.335 218.995 167.26 218.46C167.423 218.841 167.708 219.157 168.07 219.358C168.432 219.56 168.85 219.636 169.26 219.575C169.76 219.495 170.76 218.765 171.865 217.8C181.78 216.3 195.235 213.8 198.865 210.89" stroke="#263238" stroke-width="0.5" stroke-linecap="round" stroke-linejoin="round"/>
<path d="M195 195.82C193.285 193.935 191.57 193.85 187.97 194.105C187.97 194.105 178.575 197.105 172.02 201.05C165.465 204.995 155.905 209.18 155.905 209.18C155.905 209.18 152.99 208.335 150.96 209.18C150.96 209.18 149.535 209.29 150.49 211.78" stroke="#263238" stroke-width="0.5" stroke-linecap="round" stroke-linejoin="round"/>
<path d="M199.36 207.086C199.36 207.086 199.41 209.991 195.29 212.001" stroke="#263238" stroke-width="0.5" stroke-linecap="round" stroke-linejoin="round"/>
<path d="M153.92 194.965C153.92 194.965 160.42 199.665 161.725 202.765C163.002 203.303 164.236 203.94 165.415 204.67" stroke="#263238" stroke-width="0.5" stroke-linecap="round" stroke-linejoin="round"/>
<path d="M162.195 198.871C162.672 200.222 162.752 201.681 162.425 203.076" stroke="#263238" stroke-width="0.5" stroke-linecap="round" stroke-linejoin="round"/>
<path d="M160.695 195.82C161.049 196.335 161.361 196.879 161.625 197.445" stroke="#263238" stroke-width="0.5" stroke-linecap="round" stroke-linejoin="round"/>
<path d="M169.955 195.391C169.955 195.391 172.13 198.301 172.67 200.661" stroke="#263238" stroke-width="0.5" stroke-linecap="round" stroke-linejoin="round"/>
<path d="M182.07 212.972C182.879 212.924 183.684 212.824 184.48 212.672" stroke="#263238" stroke-width="0.5" stroke-linecap="round" stroke-linejoin="round"/>
<path d="M161.665 210.887C167.828 212.108 174.081 212.825 180.36 213.032" stroke="#263238" stroke-width="0.5" stroke-linecap="round" stroke-linejoin="round"/>
<path d="M205.66 166.796C205.66 166.796 204.485 187.296 203.1 188.471C201.715 189.646 199.53 190.011 195.395 190.356C191.26 190.701 172.97 191.821 172.97 191.821L171 185.946C171 185.946 180.725 184.946 185.04 183.371C188.293 182.259 191.622 181.38 195 180.741C195 180.741 194.18 175.586 194.18 173.366V162.926" fill="white"/>
<path d="M205.66 166.796C205.66 166.796 204.485 187.296 203.1 188.471C201.715 189.646 199.53 190.011 195.395 190.356C191.26 190.701 172.97 191.821 172.97 191.821L171 185.946C171 185.946 180.725 184.946 185.04 183.371C188.293 182.259 191.622 181.38 195 180.741C195 180.741 194.18 175.586 194.18 173.366V162.926" stroke="#263238" stroke-width="0.5" stroke-linecap="round" stroke-linejoin="round"/>
<path d="M202.06 144.402C206.515 147.147 207.83 153.492 206.29 167.037C206.29 167.037 207.605 168.637 205.66 169.437C205.66 169.437 198.375 166.712 194.99 168.592C191.605 170.472 192.49 165.997 192.49 165.997C192.49 165.997 191.095 153.537 194.18 151.282" fill="#263238"/>
<path d="M193.771 149.375C193.771 149.375 189.486 153.83 193.271 165.09C193.032 166.009 192.865 166.945 192.771 167.89C192.771 168.645 193.806 169.035 193.806 169.035" stroke="white" stroke-width="0.5" stroke-linecap="round" stroke-linejoin="round"/>
<path d="M188.76 156.922C188.76 156.922 189.07 162.422 192.48 164.807" stroke="white" stroke-width="0.5" stroke-linecap="round" stroke-linejoin="round"/>
<path d="M189.86 144.15C189.86 144.15 183.215 146.695 177.93 143.875C174.795 142.205 176.085 139.52 176.085 139.52" stroke="white" stroke-width="0.5" stroke-linecap="round" stroke-linejoin="round"/>
<path d="M142.075 195.829H178.245C179.062 195.83 179.876 195.724 180.665 195.514L187.8 193.644C187.899 193.619 187.986 193.561 188.049 193.481C188.111 193.4 188.145 193.301 188.145 193.199V193.199C188.145 193.076 188.096 192.958 188.009 192.871C187.922 192.783 187.803 192.734 187.68 192.734H140.58C140.458 192.736 140.341 192.785 140.255 192.872C140.168 192.959 140.12 193.077 140.12 193.199V193.874C140.12 194.393 140.326 194.89 140.693 195.257C141.059 195.623 141.557 195.829 142.075 195.829Z" fill="#757575" stroke="#263238" stroke-width="0.5" stroke-linecap="round" stroke-linejoin="round"/>
<path d="M138.501 194.03H174.771C174.913 194.036 175.054 194.007 175.182 193.946C175.31 193.884 175.421 193.792 175.505 193.677C175.589 193.562 175.643 193.428 175.662 193.287C175.681 193.146 175.665 193.003 175.616 192.87L168.891 166.705C168.801 166.384 168.612 166.099 168.352 165.89C168.092 165.681 167.774 165.559 167.441 165.54H131.161C131.018 165.534 130.877 165.564 130.749 165.626C130.621 165.688 130.51 165.781 130.427 165.896C130.343 166.011 130.289 166.146 130.27 166.287C130.25 166.428 130.266 166.571 130.316 166.705L137.046 192.87C137.136 193.191 137.325 193.477 137.586 193.685C137.847 193.893 138.167 194.014 138.501 194.03V194.03Z" fill="#999999" stroke="#263238" stroke-width="0.5" stroke-linecap="round" stroke-linejoin="round"/>
<path d="M132.44 166.473H131.755" stroke="#263238" stroke-width="0.5" stroke-linecap="round" stroke-linejoin="round"/>
<path d="M137.755 166.473H134.215" stroke="#263238" stroke-width="0.5" stroke-linecap="round" stroke-linejoin="round"/>
<path d="M173.89 190.728L167.95 167.638C167.861 167.317 167.673 167.032 167.414 166.823C167.155 166.614 166.837 166.492 166.505 166.473H138.555" stroke="#263238" stroke-width="0.5" stroke-linecap="round" stroke-linejoin="round"/>
<path d="M174.405 192.735L174.255 192.16" stroke="#263238" stroke-width="0.5" stroke-linecap="round" stroke-linejoin="round"/>
<path d="M149.405 180.447C149.43 180.659 149.473 180.868 149.535 181.072C149.995 182.647 151.47 183.607 152.825 183.207C154.18 182.807 154.905 181.207 154.445 179.632C153.985 178.057 152.5 177.097 151.145 177.497C150.987 177.546 150.835 177.611 150.69 177.692C150.765 178.226 150.683 178.771 150.455 179.259C150.227 179.748 149.862 180.161 149.405 180.447V180.447Z" fill="white" stroke="#263238" stroke-width="0.5" stroke-linecap="round" stroke-linejoin="round"/>
<path d="M165.415 131.41C162.275 131.07 160.565 128.085 158.675 127.62C157.621 127.368 156.588 127.034 155.585 126.62C155.585 126.62 154.935 124.35 153.96 125.12C152.985 125.89 151.705 142.87 152.96 142.335C154.215 141.8 154.22 143.805 154.22 143.805L165.875 154.075L175.645 136.775C175.645 136.775 168.555 131.755 165.415 131.41Z" fill="#263238"/>
<path d="M70.4404 70.9443V70.6953H70.6894" stroke="#263238" stroke-width="0.5" stroke-linecap="round" stroke-linejoin="round"/>
<path d="M72.1602 70.6953H114.46" stroke="#263238" stroke-width="0.5" stroke-linecap="round" stroke-linejoin="round" stroke-dasharray="0.49 1.47"/>
<path d="M115.19 70.6953H115.439V70.9443" stroke="#263238" stroke-width="0.5" stroke-linecap="round" stroke-linejoin="round"/>
<path d="M115.445 72.4453V99.6953" stroke="#263238" stroke-width="0.5" stroke-linecap="round" stroke-linejoin="round" stroke-dasharray="0.5 1.5"/>
<path d="M115.439 100.445V100.694H115.19" stroke="#263238" stroke-width="0.5" stroke-linecap="round" stroke-linejoin="round"/>
<path d="M113.725 100.695H71.4248" stroke="#263238" stroke-width="0.5" stroke-linecap="round" stroke-linejoin="round" stroke-dasharray="0.49 1.47"/>
<path d="M70.6894 100.694H70.4404V100.445" stroke="#263238" stroke-width="0.5" stroke-linecap="round" stroke-linejoin="round"/>
<path d="M70.4453 98.9453V71.6953" stroke="#263238" stroke-width="0.5" stroke-linecap="round" stroke-linejoin="round" stroke-dasharray="0.5 1.5"/>
<path d="M92.9451 71.437C93.3538 71.437 93.6851 71.1057 93.6851 70.697C93.6851 70.2883 93.3538 69.957 92.9451 69.957C92.5364 69.957 92.2051 70.2883 92.2051 70.697C92.2051 71.1057 92.5364 71.437 92.9451 71.437Z" fill="#41B5AC" stroke="#263238" stroke-width="0.5" stroke-linecap="round" stroke-linejoin="round"/>
<path d="M70.4451 86.437C70.8538 86.437 71.1851 86.1057 71.1851 85.697C71.1851 85.2883 70.8538 84.957 70.4451 84.957C70.0364 84.957 69.7051 85.2883 69.7051 85.697C69.7051 86.1057 70.0364 86.437 70.4451 86.437Z" fill="#41B5AC" stroke="#263238" stroke-width="0.5" stroke-linecap="round" stroke-linejoin="round"/>
<path d="M92.9451 101.437C93.3538 101.437 93.6851 101.106 93.6851 100.697C93.6851 100.288 93.3538 99.957 92.9451 99.957C92.5364 99.957 92.2051 100.288 92.2051 100.697C92.2051 101.106 92.5364 101.437 92.9451 101.437Z" fill="#41B5AC" stroke="#263238" stroke-width="0.5" stroke-linecap="round" stroke-linejoin="round"/>
<path d="M115.445 86.437C115.854 86.437 116.185 86.1057 116.185 85.697C116.185 85.2883 115.854 84.957 115.445 84.957C115.036 84.957 114.705 85.2883 114.705 85.697C114.705 86.1057 115.036 86.437 115.445 86.437Z" fill="#41B5AC" stroke="#263238" stroke-width="0.5" stroke-linecap="round" stroke-linejoin="round"/>
<path d="M116.305 99.8359H114.58V101.561H116.305V99.8359Z" fill="#41B5AC" stroke="#263238" stroke-width="0.5" stroke-linecap="round" stroke-linejoin="round"/>
<path d="M116.305 69.8359H114.58V71.5609H116.305V69.8359Z" fill="#41B5AC" stroke="#263238" stroke-width="0.5" stroke-linecap="round" stroke-linejoin="round"/>
<path d="M71.3051 99.8359H69.5801V101.561H71.3051V99.8359Z" fill="#41B5AC" stroke="#263238" stroke-width="0.5" stroke-linecap="round" stroke-linejoin="round"/>
<path d="M71.3051 69.8359H69.5801V71.5609H71.3051V69.8359Z" fill="#41B5AC" stroke="#263238" stroke-width="0.5" stroke-linecap="round" stroke-linejoin="round"/>
<path d="M112.595 73.3516H73.4297V98.2366H112.595V73.3516Z" fill="white" stroke="#263238" stroke-width="0.5" stroke-linecap="round" stroke-linejoin="round"/>
<path d="M112.595 90.8856L108.24 95.2406L96.4597 83.4606L91.5047 88.4156L83.6047 80.5156L73.4297 90.6856V98.2356H112.595V90.8856Z" fill="#41B5AC" stroke="#263238" stroke-width="0.5" stroke-linecap="round" stroke-linejoin="round"/>
<path d="M104.48 83.1823C106.007 83.1823 107.245 81.9444 107.245 80.4173C107.245 78.8903 106.007 77.6523 104.48 77.6523C102.953 77.6523 101.715 78.8903 101.715 80.4173C101.715 81.9444 102.953 83.1823 104.48 83.1823Z" fill="#41B5AC" stroke="#263238" stroke-width="0.5" stroke-linecap="round" stroke-linejoin="round"/>
<path d="M167.5 136C167.5 136 164.5 141.585 164.145 150.13" stroke="white" stroke-width="0.5" stroke-linecap="round" stroke-linejoin="round"/>
<path d="M158.68 139.867C158.68 139.867 159.575 144.617 162.18 148.057" stroke="white" stroke-width="0.5" stroke-linecap="round" stroke-linejoin="round"/>
<path d="M171 159.465C171 159.465 175.5 174.245 185.275 178.595" stroke="white" stroke-width="0.5" stroke-linecap="round" stroke-linejoin="round"/>
<path d="M182.84 132.711C182.84 132.711 182.415 135.936 179.315 136.161C178.933 135.35 178.473 134.578 177.94 133.856C179.55 133.38 181.186 132.997 182.84 132.711V132.711Z" fill="#263238"/>
<path d="M189.445 132.935C189.445 132.935 194.63 133.57 196.8 126.61C198.97 119.65 197.265 114.405 188.685 111.88C183.925 110.48 179.185 111.605 177.45 115.21C175.98 118.295 176.675 120.86 176.34 121.895C175.96 123.055 172.45 124.04 172.45 124.835C172.45 125.49 174.395 126.61 174.395 126.61L173.825 128.34L174.36 128.625C174.36 128.625 173.36 132.52 173.825 133.895C174.155 134.895 182.94 135.315 183.625 132.825" fill="white"/>
<path d="M189.445 132.935C189.445 132.935 194.63 133.57 196.8 126.61C198.97 119.65 197.265 114.405 188.685 111.88C183.925 110.48 179.185 111.605 177.45 115.21C175.98 118.295 176.675 120.86 176.34 121.895C175.96 123.055 172.45 124.04 172.45 124.835C172.45 125.49 174.395 126.61 174.395 126.61L173.825 128.34L174.36 128.625C174.36 128.625 173.36 132.52 173.825 133.895C174.155 134.895 182.94 135.315 183.625 132.825" stroke="#263238" stroke-width="0.5" stroke-linecap="round" stroke-linejoin="round"/>
<path d="M177.5 117.734C177.5 117.734 179.215 118.164 179.685 119.064" stroke="#263238" stroke-width="0.5" stroke-linecap="round" stroke-linejoin="round"/>
<path d="M177.8 121.693C177.725 122.193 177.84 122.628 178.06 122.658C178.28 122.688 178.51 122.308 178.585 121.803C178.66 121.298 178.54 120.868 178.325 120.838C178.11 120.808 177.875 121.188 177.8 121.693Z" fill="#263238"/>
<path d="M174.36 128.625C174.36 128.625 177.15 129.695 178.19 129.05" stroke="#263238" stroke-width="0.5" stroke-linecap="round" stroke-linejoin="round"/>
<path d="M175.34 121.291C175.135 122.411 175.385 123.391 175.9 123.486C176.415 123.581 177.005 122.756 177.21 121.641C177.415 120.526 177.17 119.536 176.65 119.441C176.13 119.346 175.55 120.176 175.34 121.291Z" stroke="#263238" stroke-width="0.5" stroke-linecap="round" stroke-linejoin="round"/>
<path d="M197.03 115.595C196.612 113.569 195.449 111.774 193.77 110.565C191.899 109.251 189.756 108.374 187.5 108C187.5 108 189.155 108.725 189.785 109.68C189.785 109.68 185.5 106.46 180.41 108.575C175.32 110.69 175.955 116.185 175.955 116.185L176.695 114.745C176.695 114.745 176.61 116.46 177.51 117.09C177.78 116.25 178.147 115.444 178.605 114.69C178.605 114.69 179.955 118.745 183.67 120.12C183.418 119.481 183.396 118.773 183.61 118.12C183.61 118.12 185.67 122.575 185.07 124.75L185.725 125.89C185.725 125.89 188.09 123.495 190.015 125.49C191.12 126.64 187.9 130.99 187.44 130.99L189.385 133.845C189.385 133.845 194.245 134.54 197.045 129.275C199.845 124.01 199.16 121.775 199.16 121.775C199.16 121.775 200.075 123.055 200.16 123.775C200.17 123.765 201 118.11 197.03 115.595Z" fill="#263238"/>
<path d="M185.595 126.398C185.595 126.398 187.095 121.358 190.285 123.133C193.475 124.908 191.2 127.598 190.055 128.633C188.91 129.668 188.055 131.548 187.31 131.548C186.565 131.548 186.4 130.633 186.4 130.633" fill="white"/>
<path d="M185.595 126.398C185.595 126.398 187.095 121.358 190.285 123.133C193.475 124.908 191.2 127.598 190.055 128.633C188.91 129.668 188.055 131.548 187.31 131.548C186.565 131.548 186.4 130.633 186.4 130.633" stroke="#263238" stroke-width="0.5" stroke-linecap="round" stroke-linejoin="round"/>
<path d="M177.21 121.641L186.11 123.486" stroke="#263238" stroke-width="0.5" stroke-linecap="round" stroke-linejoin="round"/>
</svg>
