<svg width="262" height="205" viewBox="0 0 262 205" fill="none" xmlns="http://www.w3.org/2000/svg">
<g clip-path="url(#clip0_765_3472)">
<path d="M273.27 193.109H250.503V193.281H273.27V193.109Z" fill="#EBEBEB"/>
<path d="M191.688 194.98H185.714V195.152H191.688V194.98Z" fill="#EBEBEB"/>
<path d="M249.816 186.73H236.624V186.902H249.816V186.73Z" fill="#EBEBEB"/>
<path d="M29.7522 187.887H0.0625V188.059H29.7522V187.887Z" fill="#EBEBEB"/>
<path d="M40.2283 187.887H35.877V188.059H40.2283V187.887Z" fill="#EBEBEB"/>
<path d="M118.772 190.785H54.375V190.957H118.772V190.785Z" fill="#EBEBEB"/>
<path d="M307.71 182.047H-36V182.219H307.71V182.047Z" fill="#EBEBEB"/>
<path d="M236.569 85.1682C231.702 85.1682 225.955 76.2799 220.882 68.4295C217.555 63.2876 214.324 58.2901 210.887 54.6811H222.263V49.1818H208.309C210.804 46.3359 213.169 42.6857 215.595 38.9392C219.404 33.0412 224.147 25.7064 227.77 25.7064H238.438V20.207H227.77C221.15 20.207 216.207 27.858 210.976 35.9558C207.168 41.847 202.424 49.1818 198.795 49.1818H77.0253C73.4026 49.1818 68.6594 41.847 64.8511 35.9558C59.613 27.858 54.6704 20.2277 48.0574 20.2277H37.3818V25.727H48.0574C51.6801 25.727 56.4233 33.0618 60.2316 38.9598C62.6514 42.7063 65.0436 46.3565 67.5114 49.2024H18.0859V54.7018H73.5332C70.0961 58.3107 66.8584 63.3082 63.5381 68.4501C58.465 76.2936 52.7181 85.1888 47.8512 85.1888H27.6273V90.6882H47.865C55.7222 90.6882 61.7715 81.3393 68.1645 71.4404C73.2376 63.5901 78.9845 54.7018 83.8514 54.7018H200.575C205.442 54.7018 211.189 63.5901 216.262 71.4404C222.662 81.3393 228.704 90.6882 236.569 90.6882H256.792V85.1888L236.569 85.1682Z" fill="#263238"/>
<g opacity="0.4">
<path d="M205.779 53.3672L205.49 53.7934C209.539 56.5843 213.375 62.2211 217.603 68.7516L218.036 68.4698C213.774 61.8912 209.91 56.2131 205.779 53.3672Z" fill="white"/>
<path d="M223.391 76.5977L222.965 76.8932C224.765 79.6175 226.838 82.1512 229.152 84.4549L229.502 84.0768C227.214 81.8003 225.166 79.294 223.391 76.5977Z" fill="white"/>
<path d="M218.916 70.7897C219.81 72.1645 220.696 73.5393 221.59 74.8592L222.016 74.5705C221.13 73.2437 220.243 71.8758 219.349 70.5078L218.916 70.7897Z" fill="white"/>
<path d="M231.406 85.5312L231.104 85.9437C232.667 87.2049 234.596 87.9281 236.603 88.006H250.241V87.4904H236.569C234.683 87.4044 232.874 86.7179 231.406 85.5312Z" fill="white"/>
<path d="M256.792 87.5117H252.668V88.0273H256.792V87.5117Z" fill="white"/>
<path d="M22.2105 51.5234H18.0859V52.039H22.2105V51.5234Z" fill="white"/>
<path d="M42.2004 51.5234H26.2041V52.039H42.2004V51.5234Z" fill="white"/>
<path d="M46.2012 51.5227V52.0382H78.1868V51.5227H77.0251C75.6891 51.4814 74.3962 51.0408 73.313 50.2578L73.0312 50.6909C73.5175 51.0153 74.033 51.2937 74.571 51.5227H46.2012Z" fill="white"/>
<path d="M178.152 51.5234H162.155V52.039H178.152V51.5234Z" fill="white"/>
<path d="M214.138 52.0382V51.5227H201.256C201.793 51.2923 202.308 51.0139 202.796 50.6909L202.507 50.2578C201.424 51.042 200.131 51.4827 198.795 51.5227H182.152V52.0382H200.575C201.552 52.0473 202.517 52.2506 203.414 52.6363L203.614 52.162L203.27 52.0382H214.138Z" fill="white"/>
<path d="M158.155 51.5234H150.16V52.039H158.155V51.5234Z" fill="white"/>
<path d="M146.159 51.5234H114.174V52.039H146.159V51.5234Z" fill="white"/>
<path d="M222.263 51.5234H218.139V52.039H222.263V51.5234Z" fill="white"/>
<path d="M212.351 39.2115L211.918 38.9297C209.773 42.2224 207.278 45.9345 204.769 48.4023L205.126 48.7667C207.676 46.2645 210.192 42.5249 212.351 39.2115Z" fill="white"/>
<path d="M227.77 23.0663H231.33V22.5508H227.77C222.518 22.5508 217.747 29.9199 213.54 36.4229L213.973 36.7048C218.111 30.3117 222.8 23.0663 227.77 23.0663Z" fill="white"/>
<path d="M238.438 22.5508H234.313V23.0663H238.438V22.5508Z" fill="white"/>
<path d="M71.0588 48.4101C68.5428 45.9423 66.0475 42.2234 63.9096 38.9375L63.4766 39.2193C65.6351 42.5327 68.151 46.2723 70.6945 48.7745L71.0588 48.4101Z" fill="white"/>
<path d="M61.8545 36.7243L62.2875 36.4424C58.0736 29.9394 53.303 22.5703 48.0579 22.5703H44.4902V23.0859H48.0579C53.0211 23.0653 57.7162 30.3107 61.8545 36.7243Z" fill="white"/>
<path d="M41.5064 22.5508H37.3818V23.0663H41.5064V22.5508Z" fill="white"/>
<path d="M94.1835 51.5234H92.9668V52.039H94.1835H97.0913H110.18V51.5234H97.0913H94.1835Z" fill="white"/>
<path d="M66.3838 68.4698L66.8169 68.7516C71.0445 62.2211 74.8734 56.5843 78.9292 53.7934L78.6336 53.3672C74.5022 56.2131 70.6389 61.8912 66.3838 68.4698Z" fill="white"/>
<path d="M83.8372 51.5234H82.1873V51.7228C81.7174 51.8303 81.2575 51.9775 80.8125 52.1627L81.0119 52.6371C81.9096 52.2528 82.8744 52.0495 83.8509 52.039H90.5464V51.5234H83.8509H83.8372Z" fill="white"/>
<path d="M47.865 87.5099H34.2129V88.0255H47.865C49.8726 87.9491 51.8017 87.2257 53.3644 85.9632L53.0619 85.5508C51.5846 86.7443 49.7626 87.4312 47.865 87.5099Z" fill="white"/>
<path d="M62.3965 74.5705L62.8296 74.8592C63.7163 73.5256 64.61 72.1576 65.4967 70.7897L65.0637 70.5078C64.1769 71.8758 63.2901 73.2437 62.3965 74.5705Z" fill="white"/>
<path d="M54.8838 84.0182L55.2412 84.3963C57.5571 82.0943 59.6302 79.5605 61.428 76.8347L61.0087 76.5391C59.2297 79.2361 57.1772 81.7424 54.8838 84.0182Z" fill="white"/>
<path d="M31.7515 87.5117H27.627V88.0273H31.7515V87.5117Z" fill="white"/>
</g>
<path d="M48.0852 74.6406H43.0533C42.4696 74.6412 41.8951 74.7858 41.3807 75.0616C40.8662 75.3374 40.4278 75.7359 40.1043 76.2217L39.3688 77.3353C39.0734 77.7815 38.672 78.1475 38.2006 78.4006C37.7291 78.6538 37.2023 78.7861 36.6672 78.7858H23.6543C23.3766 78.7858 23.1016 78.8406 22.8451 78.9471C22.5886 79.0536 22.3557 79.2096 22.1596 79.4063C21.9636 79.603 21.8083 79.8365 21.7026 80.0933C21.597 80.3501 21.5431 80.6253 21.544 80.903V101.203H50.8624V78.7858L50.6012 76.8404C50.5196 76.2311 50.2195 75.6722 49.7567 75.2676C49.2939 74.863 48.6999 74.6402 48.0852 74.6406Z" fill="#41B5AC"/>
<path opacity="0.2" d="M48.0852 74.6406H43.0533C42.4696 74.6412 41.8951 74.7858 41.3807 75.0616C40.8662 75.3374 40.4278 75.7359 40.1043 76.2217L39.3688 77.3353C39.0734 77.7815 38.672 78.1475 38.2006 78.4006C37.7291 78.6538 37.2023 78.7861 36.6672 78.7858H23.6543C23.3766 78.7858 23.1016 78.8406 22.8451 78.9471C22.5886 79.0536 22.3557 79.2096 22.1596 79.4063C21.9636 79.603 21.8083 79.8365 21.7026 80.0933C21.597 80.3501 21.5431 80.6253 21.544 80.903V101.203H50.8624V78.7858L50.6012 76.8404C50.5196 76.2311 50.2195 75.6722 49.7567 75.2676C49.2939 74.863 48.6999 74.6402 48.0852 74.6406Z" fill="white"/>
<path d="M48.6631 81.3555H23.7441V98.3966H48.6631V81.3555Z" fill="#263238"/>
<path opacity="0.9" d="M48.6631 81.3555H23.7441V98.3966H48.6631V81.3555Z" fill="white"/>
<path d="M50.8623 101.204H21.5439L17.2406 85.5375C17.1657 85.2606 17.1556 84.9702 17.2109 84.6888C17.2662 84.4074 17.3856 84.1424 17.5597 83.9145C17.7338 83.6865 17.958 83.5017 18.215 83.3743C18.472 83.2469 18.7548 83.1803 19.0416 83.1797H43.1013C43.9197 83.1817 44.7148 83.4516 45.3652 83.9482C46.0157 84.4447 46.4857 85.1405 46.7034 85.9294L50.8623 101.204Z" fill="#41B5AC"/>
<path opacity="0.6" d="M50.8623 101.204H21.5439L17.2406 85.5375C17.1657 85.2606 17.1556 84.9702 17.2109 84.6888C17.2662 84.4074 17.3856 84.1424 17.5597 83.9145C17.7338 83.6865 17.958 83.5017 18.215 83.3743C18.472 83.2469 18.7548 83.1803 19.0416 83.1797H43.1013C43.9197 83.1817 44.7148 83.4516 45.3652 83.9482C46.0157 84.4447 46.4857 85.1405 46.7034 85.9294L50.8623 101.204Z" fill="white"/>
<path d="M15.6944 6.78549e-08H21.1319C21.7618 -0.000118616 22.382 0.155455 22.9372 0.452881C23.4925 0.750308 23.9657 1.18037 24.3146 1.7048L25.1052 2.90779C25.4259 3.38893 25.8603 3.78363 26.3698 4.05699C26.8794 4.33035 27.4484 4.47396 28.0267 4.4751H42.0569C42.6604 4.4751 43.2391 4.71483 43.6658 5.14154C44.0926 5.56825 44.3323 6.147 44.3323 6.75046V26.7956C44.3323 27.2897 44.136 27.7635 43.7867 28.1129C43.4373 28.4623 42.9635 28.6585 42.4694 28.6585H14.567C14.0729 28.6585 13.5991 28.4623 13.2497 28.1129C12.9004 27.7635 12.7041 27.2897 12.7041 26.7956V4.4751L12.9859 2.3716C13.0768 1.71671 13.4007 1.1165 13.8981 0.680943C14.3955 0.245383 15.0332 0.00363904 15.6944 6.78549e-08Z" fill="#41B5AC"/>
<path opacity="0.6" d="M15.6944 6.78549e-08H21.1319C21.7618 -0.000118616 22.382 0.155455 22.9372 0.452881C23.4925 0.750308 23.9657 1.18037 24.3146 1.7048L25.1052 2.90779C25.4259 3.38893 25.8603 3.78363 26.3698 4.05699C26.8794 4.33035 27.4484 4.47396 28.0267 4.4751H42.0569C42.6604 4.4751 43.2391 4.71483 43.6658 5.14154C44.0926 5.56825 44.3323 6.147 44.3323 6.75046V26.7956C44.3323 27.2897 44.136 27.7635 43.7867 28.1129C43.4373 28.4623 42.9635 28.6585 42.4694 28.6585H14.567C14.0729 28.6585 13.5991 28.4623 13.2497 28.1129C12.9004 27.7635 12.7041 27.2897 12.7041 26.7956V4.4751L12.9859 2.3716C13.0768 1.71671 13.4007 1.1165 13.8981 0.680943C14.3955 0.245383 15.0332 0.00363904 15.6944 6.78549e-08Z" fill="white"/>
<path d="M38.6475 4.47656H35.8359V23.9512H38.6475V4.47656Z" fill="#263238"/>
<path opacity="0.5" d="M38.6475 4.47656H35.8359V23.9512H38.6475V4.47656Z" fill="white"/>
<path d="M37.3274 5.40234H35.1689V7.00403H37.3274V5.40234Z" fill="#263238"/>
<path d="M37.3274 8.89453H35.1689V10.4962H37.3274V8.89453Z" fill="#263238"/>
<path d="M37.3274 12.3867H35.1689V13.9884H37.3274V12.3867Z" fill="#263238"/>
<path d="M37.3274 15.8789H35.1689V17.4806H37.3274V15.8789Z" fill="#263238"/>
<path d="M37.3274 19.3711H35.1689V20.9728H37.3274V19.3711Z" fill="#263238"/>
<path opacity="0.7" d="M37.3274 5.40234H35.1689V7.00403H37.3274V5.40234Z" fill="white"/>
<path opacity="0.7" d="M37.3274 8.89453H35.1689V10.4962H37.3274V8.89453Z" fill="white"/>
<path opacity="0.7" d="M37.3274 12.3867H35.1689V13.9884H37.3274V12.3867Z" fill="white"/>
<path opacity="0.7" d="M37.3274 15.8789H35.1689V17.4806H37.3274V15.8789Z" fill="white"/>
<path opacity="0.7" d="M37.3274 19.3711H35.1689V20.9728H37.3274V19.3711Z" fill="white"/>
<path d="M39.4173 7.00391H37.2588V8.60559H39.4173V7.00391Z" fill="#263238"/>
<path d="M39.4173 10.4961H37.2588V12.0978H39.4173V10.4961Z" fill="#263238"/>
<path d="M39.4173 13.9883H37.2588V15.59H39.4173V13.9883Z" fill="#263238"/>
<path d="M39.4173 17.4805H37.2588V19.0822H39.4173V17.4805Z" fill="#263238"/>
<path d="M39.4173 20.9727H37.2588V22.5743H39.4173V20.9727Z" fill="#263238"/>
<g opacity="0.8">
<path d="M39.4173 7.00781H37.2588V8.6095H39.4173V7.00781Z" fill="white"/>
<path d="M39.4173 10.5H37.2588V12.1017H39.4173V10.5Z" fill="white"/>
<path d="M39.4173 13.9922H37.2588V15.5939H39.4173V13.9922Z" fill="white"/>
<path d="M39.4173 17.4844H37.2588V19.0861H39.4173V17.4844Z" fill="white"/>
<path d="M39.4173 20.9766H37.2588V22.5783H39.4173V20.9766Z" fill="white"/>
</g>
<path d="M34.2344 22.582V28.9682H40.4212V22.582H34.2344ZM39.4244 27.8064H35.2999V23.7369H39.4244V27.8064Z" fill="#263238"/>
<path opacity="0.7" d="M34.2344 22.582V28.9682H40.4212V22.582H34.2344ZM39.4244 27.8064H35.2999V23.7369H39.4244V27.8064Z" fill="white"/>
<path d="M35.973 36.832H7.31445V43.2182L13.6937 49.5974H42.3454V43.2113L35.973 36.832Z" fill="#41B5AC"/>
<path opacity="0.3" d="M35.973 36.832H7.31445V43.2182L13.6937 49.5974H42.3454V43.2113L35.973 36.832Z" fill="white"/>
<path d="M42.3519 49.5898H13.6934V55.976H42.3519V49.5898Z" fill="#41B5AC"/>
<path opacity="0.3" d="M42.3519 49.5898H13.6934V55.976H42.3519V49.5898Z" fill="white"/>
<path d="M42.3519 55.9766H13.6934V62.3627H42.3519V55.9766Z" fill="#41B5AC"/>
<path opacity="0.6" d="M42.3519 55.9766H13.6934V62.3627H42.3519V55.9766Z" fill="white"/>
<path d="M42.3519 43.2109H13.6934V49.5971H42.3519V43.2109Z" fill="#41B5AC"/>
<path d="M24.5003 62.3628H30.9346V43.2113L24.5553 36.832H18.1211L24.5003 43.2113V62.3628Z" fill="#41B5AC"/>
<path opacity="0.2" d="M24.5003 62.3628H30.9346V43.2113L24.5553 36.832H18.1211L24.5003 43.2113V62.3628Z" fill="black"/>
<path d="M22.7881 47.7773V57.7999H32.4945V47.7773H22.7881ZM30.934 55.9783H24.4929V49.5921H30.9271L30.934 55.9783Z" fill="#263238"/>
<path opacity="0.5" d="M22.7881 47.7773V57.7999H32.4945V47.7773H22.7881ZM30.934 55.9783H24.4929V49.5921H30.9271L30.934 55.9783Z" fill="white"/>
<path d="M7.31445 36.832V43.2182L13.6937 49.5974V43.2113L7.31445 36.832Z" fill="#263238"/>
<path opacity="0.5" d="M7.31445 36.832V43.2182L13.6937 49.5974V43.2113L7.31445 36.832Z" fill="white"/>
<path d="M7.31445 43.2109V49.6039L13.6937 55.9763V49.5902L7.31445 43.2109Z" fill="#263238"/>
<path opacity="0.6" d="M7.31445 43.2109V49.6039L13.6937 55.9763V49.5902L7.31445 43.2109Z" fill="white"/>
<path d="M7.31445 49.5977V55.9838L13.6937 62.363V55.9769L7.31445 49.5977Z" fill="#263238"/>
<path opacity="0.8" d="M7.31445 49.5977V55.9838L13.6937 62.363V55.9769L7.31445 49.5977Z" fill="white"/>
<path d="M262.299 66.2109H231.049V108.267H262.299V66.2109Z" fill="#41B5AC"/>
<path opacity="0.7" d="M262.299 66.2109H231.049V108.267H262.299V66.2109Z" fill="white"/>
<path opacity="0.7" d="M260.258 68.2539H233.091V79.2045H260.258V68.2539Z" fill="white"/>
<path opacity="0.7" d="M260.258 81.7617H233.091V92.7123H260.258V81.7617Z" fill="white"/>
<path d="M260.258 74.1616L257.721 71.0751L254.593 74.8903L251.466 70.3945L248.145 73.7148L244.887 71.8794L241.917 76.8013L238.955 71.8794L235.593 73.7835L233.091 72.3674V73.536L235.593 74.9521L238.597 73.2542L241.917 78.781L245.244 73.2542L248.317 74.9865L251.321 71.9756L254.525 76.5813L257.721 72.6836L260.258 75.7701V74.1616Z" fill="#41B5AC"/>
<path opacity="0.5" d="M260.258 74.1616L257.721 71.0751L254.593 74.8903L251.466 70.3945L248.145 73.7148L244.887 71.8794L241.917 76.8013L238.955 71.8794L235.593 73.7835L233.091 72.3674V73.536L235.593 74.9521L238.597 73.2542L241.917 78.781L245.244 73.2542L248.317 74.9865L251.321 71.9756L254.525 76.5813L257.721 72.6836L260.258 75.7701V74.1616Z" fill="white"/>
<path d="M260.258 85.086L257.7 86.5296L254.339 84.6254L251.376 89.5474L248.413 84.6323L245.155 86.4609L241.835 83.1406L238.707 87.6363L235.572 83.8212L233.091 86.8527V88.4612L235.572 85.4297L238.769 89.3274L241.972 84.7217L244.976 87.7326L248.049 86.0072L251.376 91.5271L254.703 86.0072L257.7 87.6982L260.258 86.2615V85.086Z" fill="#41B5AC"/>
<path opacity="0.5" d="M260.258 85.086L257.7 86.5296L254.339 84.6254L251.376 89.5474L248.413 84.6323L245.155 86.4609L241.835 83.1406L238.707 87.6363L235.572 83.8212L233.091 86.8527V88.4612L235.572 85.4297L238.769 89.3274L241.972 84.7217L244.976 87.7326L248.049 86.0072L251.376 91.5271L254.703 86.0072L257.7 87.6982L260.258 86.2615V85.086Z" fill="white"/>
<path d="M244.309 95.783H259.873C260.008 95.783 260.137 95.7294 260.232 95.634C260.328 95.5386 260.381 95.4092 260.381 95.2743C260.381 95.1394 260.328 95.01 260.232 94.9146C260.137 94.8192 260.008 94.7656 259.873 94.7656H244.309C244.175 94.7656 244.045 94.8192 243.95 94.9146C243.854 95.01 243.801 95.1394 243.801 95.2743C243.801 95.4092 243.854 95.5386 243.95 95.634C244.045 95.7294 244.175 95.783 244.309 95.783Z" fill="#263238"/>
<path d="M244.31 98.5985H257.831C257.957 98.5839 258.073 98.5237 258.157 98.4292C258.241 98.3348 258.287 98.2128 258.287 98.0863C258.287 97.9599 258.241 97.8379 258.157 97.7434C258.073 97.649 257.957 97.5888 257.831 97.5742H244.31C244.184 97.5888 244.068 97.649 243.984 97.7434C243.9 97.8379 243.854 97.9599 243.854 98.0863C243.854 98.2128 243.9 98.3348 243.984 98.4292C244.068 98.5237 244.184 98.5839 244.31 98.5985Z" fill="#263238"/>
<path d="M244.31 101.348H257.831C257.957 101.334 258.073 101.274 258.157 101.179C258.241 101.085 258.287 100.963 258.287 100.836C258.287 100.71 258.241 100.588 258.157 100.493C258.073 100.399 257.957 100.339 257.831 100.324H244.31C244.184 100.339 244.068 100.399 243.984 100.493C243.9 100.588 243.854 100.71 243.854 100.836C243.854 100.963 243.9 101.085 243.984 101.179C244.068 101.274 244.184 101.334 244.31 101.348Z" fill="#263238"/>
<path d="M244.309 104.096H258.512C258.646 104.096 258.776 104.042 258.871 103.947C258.967 103.851 259.02 103.722 259.02 103.587C259.02 103.452 258.967 103.323 258.871 103.227C258.776 103.132 258.646 103.078 258.512 103.078H244.309C244.175 103.078 244.045 103.132 243.95 103.227C243.854 103.323 243.801 103.452 243.801 103.587C243.801 103.722 243.854 103.851 243.95 103.947C244.045 104.042 244.175 104.096 244.309 104.096Z" fill="#263238"/>
<g opacity="0.4">
<path d="M244.309 95.7869H259.873C260.008 95.7869 260.137 95.7333 260.232 95.6379C260.328 95.5425 260.381 95.4131 260.381 95.2782C260.381 95.1433 260.328 95.0139 260.232 94.9185C260.137 94.8231 260.008 94.7695 259.873 94.7695H244.309C244.175 94.7695 244.045 94.8231 243.95 94.9185C243.854 95.0139 243.801 95.1433 243.801 95.2782C243.801 95.4131 243.854 95.5425 243.95 95.6379C244.045 95.7333 244.175 95.7869 244.309 95.7869Z" fill="white"/>
<path d="M244.31 98.5985H257.831C257.957 98.5839 258.073 98.5237 258.157 98.4292C258.241 98.3348 258.287 98.2128 258.287 98.0863C258.287 97.9599 258.241 97.8379 258.157 97.7434C258.073 97.649 257.957 97.5888 257.831 97.5742H244.31C244.184 97.5888 244.068 97.649 243.984 97.7434C243.9 97.8379 243.854 97.9599 243.854 98.0863C243.854 98.2128 243.9 98.3348 243.984 98.4292C244.068 98.5237 244.184 98.5839 244.31 98.5985Z" fill="white"/>
<path d="M244.31 101.348H257.831C257.957 101.334 258.073 101.274 258.157 101.179C258.241 101.085 258.287 100.963 258.287 100.836C258.287 100.71 258.241 100.588 258.157 100.493C258.073 100.399 257.957 100.339 257.831 100.324H244.31C244.184 100.339 244.068 100.399 243.984 100.493C243.9 100.588 243.854 100.71 243.854 100.836C243.854 100.963 243.9 101.085 243.984 101.179C244.068 101.274 244.184 101.334 244.31 101.348Z" fill="white"/>
<path d="M244.309 104.099H258.512C258.646 104.099 258.776 104.046 258.871 103.95C258.967 103.855 259.02 103.726 259.02 103.591C259.02 103.456 258.967 103.326 258.871 103.231C258.776 103.136 258.646 103.082 258.512 103.082H244.309C244.175 103.082 244.045 103.136 243.95 103.231C243.854 103.326 243.801 103.456 243.801 103.591C243.801 103.726 243.854 103.855 243.95 103.95C244.045 104.046 244.175 104.099 244.309 104.099Z" fill="white"/>
</g>
<path d="M260.697 1.51953H232.286V39.7538H260.697V1.51953Z" fill="#41B5AC"/>
<path opacity="0.6" d="M260.697 1.51953H232.286V39.7538H260.697V1.51953Z" fill="white"/>
<path opacity="0.7" d="M258.842 3.375H234.143V13.3288H258.842V3.375Z" fill="white"/>
<path d="M244.42 16.3186H258.574C258.687 16.3048 258.791 16.25 258.867 16.1645C258.943 16.079 258.984 15.9688 258.984 15.8546C258.984 15.7404 258.943 15.6302 258.867 15.5447C258.791 15.4593 258.687 15.4044 258.574 15.3906H244.42C244.306 15.4044 244.202 15.4593 244.126 15.5447C244.051 15.6302 244.009 15.7404 244.009 15.8546C244.009 15.9688 244.051 16.079 244.126 16.1645C244.202 16.25 244.306 16.3048 244.42 16.3186Z" fill="#263238"/>
<path d="M244.42 18.8577H256.718C256.831 18.8439 256.935 18.7891 257.011 18.7036C257.087 18.6181 257.128 18.5079 257.128 18.3937C257.128 18.2795 257.087 18.1693 257.011 18.0838C256.935 17.9983 256.831 17.9435 256.718 17.9297H244.42C244.306 17.9435 244.202 17.9983 244.126 18.0838C244.051 18.1693 244.009 18.2795 244.009 18.3937C244.009 18.5079 244.051 18.6181 244.126 18.7036C244.202 18.7891 244.306 18.8439 244.42 18.8577Z" fill="#263238"/>
<path d="M244.42 21.3733H256.718C256.831 21.3595 256.935 21.3047 257.011 21.2192C257.087 21.1337 257.128 21.0235 257.128 20.9093C257.128 20.7951 257.087 20.6849 257.011 20.5994C256.935 20.514 256.831 20.4591 256.718 20.4453H244.42C244.306 20.4591 244.202 20.514 244.126 20.5994C244.051 20.6849 244.009 20.7951 244.009 20.9093C244.009 21.0235 244.051 21.1337 244.126 21.2192C244.202 21.3047 244.306 21.3595 244.42 21.3733Z" fill="#263238"/>
<path d="M244.42 23.9007H257.336C257.45 23.8868 257.554 23.832 257.63 23.7465C257.705 23.6611 257.747 23.5508 257.747 23.4367C257.747 23.3225 257.705 23.2123 257.63 23.1268C257.554 23.0413 257.45 22.9865 257.336 22.9727H244.42C244.306 22.9865 244.202 23.0413 244.126 23.1268C244.051 23.2123 244.009 23.3225 244.009 23.4367C244.009 23.5508 244.051 23.6611 244.126 23.7465C244.202 23.832 244.306 23.8868 244.42 23.9007Z" fill="#263238"/>
<path d="M244.42 26.4202H254.862C254.975 26.4064 255.079 26.3516 255.155 26.2661C255.231 26.1806 255.272 26.0704 255.272 25.9562C255.272 25.842 255.231 25.7318 255.155 25.6463C255.079 25.5608 254.975 25.506 254.862 25.4922H244.42C244.306 25.506 244.202 25.5608 244.126 25.6463C244.051 25.7318 244.009 25.842 244.009 25.9562C244.009 26.0704 244.051 26.1806 244.126 26.2661C244.202 26.3516 244.306 26.4064 244.42 26.4202Z" fill="#263238"/>
<path d="M244.42 28.9554H258.574C258.687 28.9415 258.791 28.8867 258.867 28.8012C258.943 28.7158 258.984 28.6055 258.984 28.4914C258.984 28.3772 258.943 28.267 258.867 28.1815C258.791 28.096 258.687 28.0412 258.574 28.0273H244.42C244.306 28.0412 244.202 28.096 244.126 28.1815C244.051 28.267 244.009 28.3772 244.009 28.4914C244.009 28.6055 244.051 28.7158 244.126 28.8012C244.202 28.8867 244.306 28.9415 244.42 28.9554Z" fill="#263238"/>
<path d="M244.42 31.4788H256.718C256.831 31.465 256.935 31.4102 257.011 31.3247C257.087 31.2392 257.128 31.129 257.128 31.0148C257.128 30.9006 257.087 30.7904 257.011 30.7049C256.935 30.6194 256.831 30.5646 256.718 30.5508H244.42C244.306 30.5646 244.202 30.6194 244.126 30.7049C244.051 30.7904 244.009 30.9006 244.009 31.0148C244.009 31.129 244.051 31.2392 244.126 31.3247C244.202 31.4102 244.306 31.465 244.42 31.4788Z" fill="#263238"/>
<path d="M244.42 33.9788H256.718C256.831 33.965 256.935 33.9102 257.011 33.8247C257.087 33.7392 257.128 33.629 257.128 33.5148C257.128 33.4006 257.087 33.2904 257.011 33.2049C256.935 33.1194 256.831 33.0646 256.718 33.0508H244.42C244.306 33.0646 244.202 33.1194 244.126 33.2049C244.051 33.2904 244.009 33.4006 244.009 33.5148C244.009 33.629 244.051 33.7392 244.126 33.8247C244.202 33.9102 244.306 33.965 244.42 33.9788Z" fill="#263238"/>
<path d="M244.42 36.5296H257.336C257.45 36.5158 257.554 36.4609 257.63 36.3755C257.705 36.29 257.747 36.1797 257.747 36.0656C257.747 35.9514 257.705 35.8412 257.63 35.7557C257.554 35.6702 257.45 35.6154 257.336 35.6016H244.42C244.306 35.6154 244.202 35.6702 244.126 35.7557C244.051 35.8412 244.009 35.9514 244.009 36.0656C244.009 36.1797 244.051 36.29 244.126 36.3755C244.202 36.4609 244.306 36.5158 244.42 36.5296Z" fill="#263238"/>
<g opacity="0.4">
<path d="M244.42 16.3225H258.574C258.687 16.3087 258.791 16.2539 258.867 16.1684C258.943 16.0829 258.984 15.9727 258.984 15.8585C258.984 15.7444 258.943 15.6341 258.867 15.5486C258.791 15.4632 258.687 15.4084 258.574 15.3945H244.42C244.306 15.4084 244.202 15.4632 244.126 15.5486C244.051 15.6341 244.009 15.7444 244.009 15.8585C244.009 15.9727 244.051 16.0829 244.126 16.1684C244.202 16.2539 244.306 16.3087 244.42 16.3225Z" fill="white"/>
</g>
<g opacity="0.4">
<path d="M244.42 18.8577H256.718C256.831 18.8439 256.935 18.7891 257.011 18.7036C257.087 18.6181 257.128 18.5079 257.128 18.3937C257.128 18.2795 257.087 18.1693 257.011 18.0838C256.935 17.9983 256.831 17.9435 256.718 17.9297H244.42C244.306 17.9435 244.202 17.9983 244.126 18.0838C244.051 18.1693 244.009 18.2795 244.009 18.3937C244.009 18.5079 244.051 18.6181 244.126 18.7036C244.202 18.7891 244.306 18.8439 244.42 18.8577Z" fill="white"/>
</g>
<g opacity="0.4">
<path d="M244.42 21.3733H256.718C256.831 21.3595 256.935 21.3047 257.011 21.2192C257.087 21.1337 257.128 21.0235 257.128 20.9093C257.128 20.7951 257.087 20.6849 257.011 20.5994C256.935 20.514 256.831 20.4591 256.718 20.4453H244.42C244.306 20.4591 244.202 20.514 244.126 20.5994C244.051 20.6849 244.009 20.7951 244.009 20.9093C244.009 21.0235 244.051 21.1337 244.126 21.2192C244.202 21.3047 244.306 21.3595 244.42 21.3733Z" fill="white"/>
</g>
<g opacity="0.4">
<path d="M244.42 23.9007H257.336C257.45 23.8868 257.554 23.832 257.63 23.7465C257.705 23.6611 257.747 23.5508 257.747 23.4367C257.747 23.3225 257.705 23.2123 257.63 23.1268C257.554 23.0413 257.45 22.9865 257.336 22.9727H244.42C244.306 22.9865 244.202 23.0413 244.126 23.1268C244.051 23.2123 244.009 23.3225 244.009 23.4367C244.009 23.5508 244.051 23.6611 244.126 23.7465C244.202 23.832 244.306 23.8868 244.42 23.9007Z" fill="white"/>
</g>
<g opacity="0.4">
<path d="M244.42 26.4163H254.862C254.975 26.4025 255.079 26.3477 255.155 26.2622C255.231 26.1767 255.272 26.0665 255.272 25.9523C255.272 25.8381 255.231 25.7279 255.155 25.6424C255.079 25.5569 254.975 25.5021 254.862 25.4883H244.42C244.306 25.5021 244.202 25.5569 244.126 25.6424C244.051 25.7279 244.009 25.8381 244.009 25.9523C244.009 26.0665 244.051 26.1767 244.126 26.2622C244.202 26.3477 244.306 26.4025 244.42 26.4163Z" fill="white"/>
</g>
<g opacity="0.4">
<path d="M244.42 28.9515H258.574C258.687 28.9376 258.791 28.8828 258.867 28.7973C258.943 28.7118 258.984 28.6016 258.984 28.4874C258.984 28.3733 258.943 28.263 258.867 28.1776C258.791 28.0921 258.687 28.0373 258.574 28.0234H244.42C244.306 28.0373 244.202 28.0921 244.126 28.1776C244.051 28.263 244.009 28.3733 244.009 28.4874C244.009 28.6016 244.051 28.7118 244.126 28.7973C244.202 28.8828 244.306 28.9376 244.42 28.9515Z" fill="white"/>
</g>
<g opacity="0.4">
<path d="M244.42 31.4749H256.718C256.831 31.4611 256.935 31.4062 257.011 31.3208C257.087 31.2353 257.128 31.1251 257.128 31.0109C257.128 30.8967 257.087 30.7865 257.011 30.701C256.935 30.6155 256.831 30.5607 256.718 30.5469H244.42C244.306 30.5607 244.202 30.6155 244.126 30.701C244.051 30.7865 244.009 30.8967 244.009 31.0109C244.009 31.1251 244.051 31.2353 244.126 31.3208C244.202 31.4062 244.306 31.4611 244.42 31.4749Z" fill="white"/>
</g>
<g opacity="0.4">
<path d="M244.42 33.9827H256.718C256.831 33.9689 256.935 33.9141 257.011 33.8286C257.087 33.7431 257.128 33.6329 257.128 33.5187C257.128 33.4045 257.087 33.2943 257.011 33.2088C256.935 33.1233 256.831 33.0685 256.718 33.0547H244.42C244.306 33.0685 244.202 33.1233 244.126 33.2088C244.051 33.2943 244.009 33.4045 244.009 33.5187C244.009 33.6329 244.051 33.7431 244.126 33.8286C244.202 33.9141 244.306 33.9689 244.42 33.9827Z" fill="white"/>
</g>
<g opacity="0.4">
<path d="M244.42 36.5296H257.336C257.45 36.5158 257.554 36.4609 257.63 36.3755C257.705 36.29 257.747 36.1797 257.747 36.0656C257.747 35.9514 257.705 35.8412 257.63 35.7557C257.554 35.6702 257.45 35.6154 257.336 35.6016H244.42C244.306 35.6154 244.202 35.6702 244.126 35.7557C244.051 35.8412 244.009 35.9514 244.009 36.0656C244.009 36.1797 244.051 36.29 244.126 36.3755C244.202 36.4609 244.306 36.5158 244.42 36.5296Z" fill="white"/>
</g>
<path d="M241.106 15.8594H234.143V22.8229H241.106V15.8594Z" fill="#41B5AC"/>
<path opacity="0.3" d="M241.106 15.8594H234.143V22.8229H241.106V15.8594Z" fill="white"/>
<path d="M241.78 8.66406H239.896V12.4311H241.78V8.66406Z" fill="#41B5AC"/>
<path d="M245.553 6.77344H243.67V12.424H245.553V6.77344Z" fill="#41B5AC"/>
<path d="M249.321 7.71875H247.438V12.4276H249.321V7.71875Z" fill="#41B5AC"/>
<path d="M253.088 4.88672H251.204V12.4277H253.088V4.88672Z" fill="#41B5AC"/>
<path d="M246.784 33.2852H218.373V71.5194H246.784V33.2852Z" fill="#41B5AC"/>
<path opacity="0.8" d="M246.784 33.2852H218.373V71.5194H246.784V33.2852Z" fill="white"/>
<path d="M230.506 37.4163H244.66C244.773 37.4025 244.877 37.3477 244.953 37.2622C245.029 37.1767 245.07 37.0665 245.07 36.9523C245.07 36.8381 245.029 36.7279 244.953 36.6424C244.877 36.5569 244.773 36.5021 244.66 36.4883H230.506C230.392 36.5021 230.288 36.5569 230.212 36.6424C230.137 36.7279 230.095 36.8381 230.095 36.9523C230.095 37.0665 230.137 37.1767 230.212 37.2622C230.288 37.3477 230.392 37.4025 230.506 37.4163Z" fill="#263238"/>
<path d="M230.506 39.9124H242.804C242.917 39.8986 243.021 39.8437 243.097 39.7583C243.173 39.6728 243.214 39.5626 243.214 39.4484C243.214 39.3342 243.173 39.224 243.097 39.1385C243.021 39.053 242.917 38.9982 242.804 38.9844H230.506C230.392 38.9982 230.288 39.053 230.212 39.1385C230.137 39.224 230.095 39.3342 230.095 39.4484C230.095 39.5626 230.137 39.6728 230.212 39.7583C230.288 39.8437 230.392 39.8986 230.506 39.9124Z" fill="#263238"/>
<path d="M230.506 42.4358H242.804C242.917 42.422 243.021 42.3672 243.097 42.2817C243.173 42.1962 243.214 42.086 243.214 41.9718C243.214 41.8576 243.173 41.7474 243.097 41.6619C243.021 41.5765 242.917 41.5216 242.804 41.5078H230.506C230.392 41.5216 230.288 41.5765 230.212 41.6619C230.137 41.7474 230.095 41.8576 230.095 41.9718C230.095 42.086 230.137 42.1962 230.212 42.2817C230.288 42.3672 230.392 42.422 230.506 42.4358Z" fill="#263238"/>
<path d="M230.506 44.9788H243.422C243.536 44.965 243.64 44.9102 243.716 44.8247C243.791 44.7392 243.833 44.629 243.833 44.5148C243.833 44.4006 243.791 44.2904 243.716 44.2049C243.64 44.1194 243.536 44.0646 243.422 44.0508H230.506C230.392 44.0646 230.288 44.1194 230.212 44.2049C230.137 44.2904 230.095 44.4006 230.095 44.5148C230.095 44.629 230.137 44.7392 230.212 44.8247C230.288 44.9102 230.392 44.965 230.506 44.9788Z" fill="#263238"/>
<path d="M230.506 47.4866H240.947C241.061 47.4728 241.165 47.418 241.241 47.3325C241.317 47.247 241.358 47.1368 241.358 47.0226C241.358 46.9084 241.317 46.7982 241.241 46.7127C241.165 46.6272 241.061 46.5724 240.947 46.5586H230.506C230.392 46.5724 230.288 46.6272 230.212 46.7127C230.137 46.7982 230.095 46.9084 230.095 47.0226C230.095 47.1368 230.137 47.247 230.212 47.3325C230.288 47.418 230.392 47.4728 230.506 47.4866Z" fill="#263238"/>
<path d="M230.506 50.0179H244.66C244.773 50.004 244.877 49.9492 244.953 49.8637C245.029 49.7783 245.07 49.668 245.07 49.5539C245.07 49.4397 245.029 49.3295 244.953 49.244C244.877 49.1585 244.773 49.1037 244.66 49.0898H230.506C230.392 49.1037 230.288 49.1585 230.212 49.244C230.137 49.3295 230.095 49.4397 230.095 49.5539C230.095 49.668 230.137 49.7783 230.212 49.8637C230.288 49.9492 230.392 50.004 230.506 50.0179Z" fill="#263238"/>
<path d="M230.506 52.5413H242.804C242.917 52.5275 243.021 52.4727 243.097 52.3872C243.173 52.3017 243.214 52.1915 243.214 52.0773C243.214 51.9631 243.173 51.8529 243.097 51.7674C243.021 51.6819 242.917 51.6271 242.804 51.6133H230.506C230.392 51.6271 230.288 51.6819 230.212 51.7674C230.137 51.8529 230.095 51.9631 230.095 52.0773C230.095 52.1915 230.137 52.3017 230.212 52.3872C230.288 52.4727 230.392 52.5275 230.506 52.5413Z" fill="#263238"/>
<path d="M230.506 55.0686H242.804C242.917 55.0548 243.021 55 243.097 54.9145C243.173 54.829 243.214 54.7188 243.214 54.6046C243.214 54.4905 243.173 54.3802 243.097 54.2947C243.021 54.2093 242.917 54.1544 242.804 54.1406H230.506C230.392 54.1544 230.288 54.2093 230.212 54.2947C230.137 54.3802 230.095 54.4905 230.095 54.6046C230.095 54.7188 230.137 54.829 230.212 54.9145C230.288 55 230.392 55.0548 230.506 55.0686Z" fill="#263238"/>
<path d="M230.506 60.1038H240.947C241.061 60.09 241.165 60.0352 241.241 59.9497C241.317 59.8642 241.358 59.754 241.358 59.6398C241.358 59.5256 241.317 59.4154 241.241 59.3299C241.165 59.2444 241.061 59.1896 240.947 59.1758H230.506C230.392 59.1896 230.288 59.2444 230.212 59.3299C230.137 59.4154 230.095 59.5256 230.095 59.6398C230.095 59.754 230.137 59.8642 230.212 59.9497C230.288 60.0352 230.392 60.09 230.506 60.1038Z" fill="#263238"/>
<path d="M230.506 62.6507H244.66C244.773 62.6369 244.877 62.582 244.953 62.4965C245.029 62.4111 245.07 62.3008 245.07 62.1867C245.07 62.0725 245.029 61.9623 244.953 61.8768C244.877 61.7913 244.773 61.7365 244.66 61.7227H230.506C230.392 61.7365 230.288 61.7913 230.212 61.8768C230.137 61.9623 230.095 62.0725 230.095 62.1867C230.095 62.3008 230.137 62.4111 230.212 62.4965C230.288 62.582 230.392 62.6369 230.506 62.6507Z" fill="#263238"/>
<path d="M230.506 65.1741H242.804C242.917 65.1603 243.021 65.1055 243.097 65.02C243.173 64.9345 243.214 64.8243 243.214 64.7101C243.214 64.5959 243.173 64.4857 243.097 64.4002C243.021 64.3147 242.917 64.2599 242.804 64.2461H230.506C230.392 64.2599 230.288 64.3147 230.212 64.4002C230.137 64.4857 230.095 64.5959 230.095 64.7101C230.095 64.8243 230.137 64.9345 230.212 65.02C230.288 65.1055 230.392 65.1603 230.506 65.1741Z" fill="#263238"/>
<path d="M230.506 67.7054H242.804C242.917 67.6915 243.021 67.6367 243.097 67.5512C243.173 67.4658 243.214 67.3555 243.214 67.2413C243.214 67.1272 243.173 67.0169 243.097 66.9315C243.021 66.846 242.917 66.7912 242.804 66.7773H230.506C230.392 66.7912 230.288 66.846 230.212 66.9315C230.137 67.0169 230.095 67.1272 230.095 67.2413C230.095 67.3555 230.137 67.4658 230.212 67.5512C230.288 67.6367 230.392 67.6915 230.506 67.7054Z" fill="#263238"/>
<path d="M230.506 57.5921H243.422C243.536 57.5783 243.64 57.5234 243.716 57.438C243.791 57.3525 243.833 57.2422 243.833 57.1281C243.833 57.0139 243.791 56.9037 243.716 56.8182C243.64 56.7327 243.536 56.6779 243.422 56.6641H230.506C230.392 56.6779 230.288 56.7327 230.212 56.8182C230.137 56.9037 230.095 57.0139 230.095 57.1281C230.095 57.2422 230.137 57.3525 230.212 57.438C230.288 57.5234 230.392 57.5783 230.506 57.5921Z" fill="#263238"/>
<g opacity="0.4">
<path d="M230.506 37.4202H244.66C244.773 37.4064 244.877 37.3516 244.953 37.2661C245.029 37.1806 245.07 37.0704 245.07 36.9562C245.07 36.842 245.029 36.7318 244.953 36.6463C244.877 36.5608 244.773 36.506 244.66 36.4922H230.506C230.392 36.506 230.288 36.5608 230.212 36.6463C230.137 36.7318 230.095 36.842 230.095 36.9562C230.095 37.0704 230.137 37.1806 230.212 37.2661C230.288 37.3516 230.392 37.4064 230.506 37.4202Z" fill="white"/>
<path d="M230.506 39.9163H242.804C242.917 39.9025 243.021 39.8477 243.097 39.7622C243.173 39.6767 243.214 39.5665 243.214 39.4523C243.214 39.3381 243.173 39.2279 243.097 39.1424C243.021 39.0569 242.917 39.0021 242.804 38.9883H230.506C230.392 39.0021 230.288 39.0569 230.212 39.1424C230.137 39.2279 230.095 39.3381 230.095 39.4523C230.095 39.5665 230.137 39.6767 230.212 39.7622C230.288 39.8477 230.392 39.9025 230.506 39.9163Z" fill="white"/>
<path d="M230.506 42.4397H242.804C242.917 42.4259 243.021 42.3711 243.097 42.2856C243.173 42.2001 243.214 42.0899 243.214 41.9757C243.214 41.8616 243.173 41.7513 243.097 41.6658C243.021 41.5804 242.917 41.5255 242.804 41.5117H230.506C230.392 41.5255 230.288 41.5804 230.212 41.6658C230.137 41.7513 230.095 41.8616 230.095 41.9757C230.095 42.0899 230.137 42.2001 230.212 42.2856C230.288 42.3711 230.392 42.4259 230.506 42.4397Z" fill="white"/>
<path d="M230.506 44.9827H243.422C243.536 44.9689 243.64 44.9141 243.716 44.8286C243.791 44.7431 243.833 44.6329 243.833 44.5187C243.833 44.4045 243.791 44.2943 243.716 44.2088C243.64 44.1233 243.536 44.0685 243.422 44.0547H230.506C230.392 44.0685 230.288 44.1233 230.212 44.2088C230.137 44.2943 230.095 44.4045 230.095 44.5187C230.095 44.6329 230.137 44.7431 230.212 44.8286C230.288 44.9141 230.392 44.9689 230.506 44.9827Z" fill="white"/>
<path d="M230.506 47.4905H240.947C241.061 47.4767 241.165 47.4219 241.241 47.3364C241.317 47.2509 241.358 47.1407 241.358 47.0265C241.358 46.9123 241.317 46.8021 241.241 46.7166C241.165 46.6311 241.061 46.5763 240.947 46.5625H230.506C230.392 46.5763 230.288 46.6311 230.212 46.7166C230.137 46.8021 230.095 46.9123 230.095 47.0265C230.095 47.1407 230.137 47.2509 230.212 47.3364C230.288 47.4219 230.392 47.4767 230.506 47.4905Z" fill="white"/>
<path d="M230.506 50.0179H244.66C244.773 50.004 244.877 49.9492 244.953 49.8637C245.029 49.7783 245.07 49.668 245.07 49.5539C245.07 49.4397 245.029 49.3295 244.953 49.244C244.877 49.1585 244.773 49.1037 244.66 49.0898H230.506C230.392 49.1037 230.288 49.1585 230.212 49.244C230.137 49.3295 230.095 49.4397 230.095 49.5539C230.095 49.668 230.137 49.7783 230.212 49.8637C230.288 49.9492 230.392 50.004 230.506 50.0179Z" fill="white"/>
<path d="M230.506 52.5452H242.804C242.917 52.5314 243.021 52.4766 243.097 52.3911C243.173 52.3056 243.214 52.1954 243.214 52.0812C243.214 51.967 243.173 51.8568 243.097 51.7713C243.021 51.6858 242.917 51.631 242.804 51.6172H230.506C230.392 51.631 230.288 51.6858 230.212 51.7713C230.137 51.8568 230.095 51.967 230.095 52.0812C230.095 52.1954 230.137 52.3056 230.212 52.3911C230.288 52.4766 230.392 52.5314 230.506 52.5452Z" fill="white"/>
<path d="M230.506 55.0725H242.804C242.917 55.0587 243.021 55.0039 243.097 54.9184C243.173 54.8329 243.214 54.7227 243.214 54.6085C243.214 54.4944 243.173 54.3841 243.097 54.2986C243.021 54.2132 242.917 54.1584 242.804 54.1445H230.506C230.392 54.1584 230.288 54.2132 230.212 54.2986C230.137 54.3841 230.095 54.4944 230.095 54.6085C230.095 54.7227 230.137 54.8329 230.212 54.9184C230.288 55.0039 230.392 55.0587 230.506 55.0725Z" fill="white"/>
<path d="M230.506 60.1038H240.947C241.061 60.09 241.165 60.0352 241.241 59.9497C241.317 59.8642 241.358 59.754 241.358 59.6398C241.358 59.5256 241.317 59.4154 241.241 59.3299C241.165 59.2444 241.061 59.1896 240.947 59.1758H230.506C230.392 59.1896 230.288 59.2444 230.212 59.3299C230.137 59.4154 230.095 59.5256 230.095 59.6398C230.095 59.754 230.137 59.8642 230.212 59.9497C230.288 60.0352 230.392 60.09 230.506 60.1038Z" fill="white"/>
<path d="M230.506 62.6546H244.66C244.773 62.6408 244.877 62.5859 244.953 62.5005C245.029 62.415 245.07 62.3047 245.07 62.1906C245.07 62.0764 245.029 61.9662 244.953 61.8807C244.877 61.7952 244.773 61.7404 244.66 61.7266H230.506C230.392 61.7404 230.288 61.7952 230.212 61.8807C230.137 61.9662 230.095 62.0764 230.095 62.1906C230.095 62.3047 230.137 62.415 230.212 62.5005C230.288 62.5859 230.392 62.6408 230.506 62.6546Z" fill="white"/>
<path d="M230.506 65.178H242.804C242.917 65.1642 243.021 65.1094 243.097 65.0239C243.173 64.9384 243.214 64.8282 243.214 64.714C243.214 64.5998 243.173 64.4896 243.097 64.4041C243.021 64.3186 242.917 64.2638 242.804 64.25H230.506C230.392 64.2638 230.288 64.3186 230.212 64.4041C230.137 64.4896 230.095 64.5998 230.095 64.714C230.095 64.8282 230.137 64.9384 230.212 65.0239C230.288 65.1094 230.392 65.1642 230.506 65.178Z" fill="white"/>
<path d="M230.506 67.7054H242.804C242.917 67.6915 243.021 67.6367 243.097 67.5512C243.173 67.4658 243.214 67.3555 243.214 67.2413C243.214 67.1272 243.173 67.0169 243.097 66.9315C243.021 66.846 242.917 66.7912 242.804 66.7773H230.506C230.392 66.7912 230.288 66.846 230.212 66.9315C230.137 67.0169 230.095 67.1272 230.095 67.2413C230.095 67.3555 230.137 67.4658 230.212 67.5512C230.288 67.6367 230.392 67.6915 230.506 67.7054Z" fill="white"/>
<path d="M230.506 57.596H243.422C243.536 57.5822 243.64 57.5273 243.716 57.4419C243.791 57.3564 243.833 57.2462 243.833 57.132C243.833 57.0178 243.791 56.9076 243.716 56.8221C243.64 56.7366 243.536 56.6818 243.422 56.668H230.506C230.392 56.6818 230.288 56.7366 230.212 56.8221C230.137 56.9076 230.095 57.0178 230.095 57.132C230.095 57.2462 230.137 57.3564 230.212 57.4419C230.288 57.5273 230.392 57.5822 230.506 57.596Z" fill="white"/>
</g>
<path d="M222.738 50.183L221.617 49.0625C221.219 49.4574 220.903 49.9276 220.689 50.4457C220.474 50.9638 220.364 51.5194 220.366 52.0803H221.954C221.953 51.7279 222.022 51.3789 222.156 51.0532C222.291 50.7276 222.488 50.4318 222.738 50.183Z" fill="#41B5AC"/>
<path d="M224.628 54.7591C223.918 54.7572 223.238 54.474 222.737 53.9714C222.236 53.4688 221.954 52.788 221.954 52.0781H220.366C220.366 53.2085 220.815 54.2925 221.615 55.0918C222.414 55.8911 223.498 56.3401 224.628 56.3401V54.7591Z" fill="#41B5AC"/>
<path opacity="0.3" d="M224.628 54.7591C223.918 54.7572 223.238 54.474 222.737 53.9714C222.236 53.4688 221.954 52.788 221.954 52.0781H220.366C220.366 53.2085 220.815 54.2925 221.615 55.0918C222.414 55.8911 223.498 56.3401 224.628 56.3401V54.7591Z" fill="white"/>
<path d="M222.738 50.1802C222.985 49.9306 223.28 49.7328 223.604 49.5983C223.929 49.4637 224.277 49.3951 224.628 49.3965V47.8086C224.069 47.8086 223.515 47.9191 222.998 48.1338C222.481 48.3485 222.012 48.6632 221.617 49.0597L222.738 50.1802Z" fill="#41B5AC"/>
<path opacity="0.5" d="M222.738 50.1802C222.985 49.9306 223.28 49.7328 223.604 49.5983C223.929 49.4637 224.277 49.3951 224.628 49.3965V47.8086C224.069 47.8086 223.515 47.9191 222.998 48.1338C222.481 48.3485 222.012 48.6632 221.617 49.0597L222.738 50.1802Z" fill="black"/>
<path d="M227.282 52.0809C227.282 52.7919 227 53.4739 226.497 53.9766C225.995 54.4794 225.313 54.7618 224.602 54.7618V56.3429C225.176 56.366 225.749 56.2727 226.287 56.0688C226.825 55.8648 227.316 55.5543 227.73 55.156C228.145 54.7576 228.475 54.2796 228.7 53.7506C228.926 53.2216 229.042 52.6525 229.042 52.0775C229.042 51.5025 228.926 50.9334 228.7 50.4044C228.475 49.8754 228.145 49.3973 227.73 48.999C227.316 48.6006 226.825 48.2901 226.287 48.0862C225.749 47.8822 225.176 47.789 224.602 47.812V49.4C224.954 49.3991 225.303 49.4678 225.629 49.6022C225.954 49.7366 226.25 49.934 226.499 50.1832C226.748 50.4323 226.946 50.7282 227.08 51.0539C227.215 51.3796 227.283 51.7286 227.282 52.0809Z" fill="#41B5AC"/>
<path opacity="0.2" d="M226.525 53.9685L227.646 55.0959C228.043 54.7003 228.358 54.23 228.573 53.7121C228.788 53.1941 228.898 52.6388 228.897 52.0781H227.282C227.287 52.4275 227.222 52.7745 227.093 53.099C226.963 53.4234 226.77 53.719 226.525 53.9685Z" fill="black"/>
<path d="M222.738 42.125L221.617 43.2455C222.011 43.6433 222.48 43.9587 222.997 44.1735C223.514 44.3883 224.068 44.4981 224.628 44.4966V42.9155C224.276 42.9156 223.928 42.8458 223.603 42.7101C223.279 42.5744 222.985 42.3755 222.738 42.125Z" fill="#41B5AC"/>
<path d="M227.282 40.2344C227.282 40.9454 227 41.6273 226.497 42.1301C225.995 42.6328 225.313 42.9153 224.602 42.9153V44.4964C225.733 44.4964 226.817 44.0476 227.618 43.2485C228.418 42.4494 228.869 41.3654 228.87 40.2344H227.282Z" fill="#41B5AC"/>
<path opacity="0.3" d="M227.282 40.2344C227.282 40.9454 227 41.6273 226.497 42.1301C225.995 42.6328 225.313 42.9153 224.602 42.9153V44.4964C225.733 44.4964 226.817 44.0476 227.618 43.2485C228.418 42.4494 228.869 41.3654 228.87 40.2344H227.282Z" fill="white"/>
<path d="M222.738 42.1248C222.488 41.8775 222.29 41.5829 222.156 41.2584C222.021 40.9338 221.953 40.5857 221.954 40.2344H220.366C220.365 40.7941 220.475 41.3486 220.689 41.8655C220.904 42.3824 221.22 42.8514 221.617 43.2453L222.738 42.1248Z" fill="#41B5AC"/>
<path opacity="0.5" d="M222.738 42.1248C222.488 41.8775 222.29 41.5829 222.156 41.2584C222.021 40.9338 221.953 40.5857 221.954 40.2344H220.366C220.365 40.7941 220.475 41.3486 220.689 41.8655C220.904 42.3824 221.22 42.8514 221.617 43.2453L222.738 42.1248Z" fill="black"/>
<path d="M224.629 37.5522C224.981 37.5513 225.33 37.62 225.656 37.7544C225.981 37.8888 226.277 38.0863 226.526 38.3354C226.776 38.5845 226.973 38.8804 227.107 39.2061C227.242 39.5318 227.311 39.8808 227.31 40.2331H228.898C228.921 39.6586 228.827 39.0853 228.623 38.5476C228.419 38.01 228.109 37.5191 227.711 37.1045C227.312 36.6898 226.834 36.3599 226.305 36.1345C225.776 35.9091 225.207 35.793 224.632 35.793C224.057 35.793 223.488 35.9091 222.959 36.1345C222.43 36.3599 221.952 36.6898 221.554 37.1045C221.155 37.5191 220.845 38.01 220.641 38.5476C220.437 39.0853 220.344 39.6586 220.367 40.2331H221.955C221.954 39.8814 222.022 39.5329 222.156 39.2077C222.29 38.8825 222.487 38.5869 222.735 38.3378C222.984 38.0888 223.279 37.8912 223.604 37.7564C223.929 37.6216 224.277 37.5522 224.629 37.5522Z" fill="#41B5AC"/>
<path opacity="0.2" d="M226.526 38.3365L227.647 37.216C227.252 36.8177 226.782 36.5019 226.264 36.2872C225.745 36.0724 225.19 35.9628 224.629 35.9649V37.5528C224.981 37.5509 225.331 37.6192 225.656 37.7537C225.982 37.8883 226.278 38.0864 226.526 38.3365Z" fill="black"/>
<path d="M226.525 62.0267L227.646 60.9062C228.044 61.3011 228.36 61.7713 228.575 62.2894C228.789 62.8075 228.899 63.3632 228.897 63.924H227.282C227.286 63.5736 227.222 63.2257 227.092 62.9001C226.963 62.5746 226.77 62.2778 226.525 62.0267Z" fill="#41B5AC"/>
<path d="M224.629 66.6067C225.34 66.6067 226.022 66.3243 226.525 65.8215C227.027 65.3187 227.31 64.6368 227.31 63.9258H228.898C228.898 65.058 228.448 66.1438 227.647 66.9443C226.847 67.7449 225.761 68.1947 224.629 68.1947V66.6067Z" fill="#41B5AC"/>
<path opacity="0.3" d="M224.629 66.6067C225.34 66.6067 226.022 66.3243 226.525 65.8215C227.027 65.3187 227.31 64.6368 227.31 63.9258H228.898C228.898 65.058 228.448 66.1438 227.647 66.9443C226.847 67.7449 225.761 68.1947 224.629 68.1947V66.6067Z" fill="white"/>
<path d="M226.526 62.0278C226.277 61.779 225.981 61.5817 225.656 61.4472C225.33 61.3128 224.981 61.2438 224.629 61.2442V59.6563C225.19 59.6557 225.745 59.7659 226.263 59.9807C226.781 60.1954 227.251 60.5103 227.647 60.9074L226.526 62.0278Z" fill="#41B5AC"/>
<path opacity="0.5" d="M226.526 62.0278C226.277 61.779 225.981 61.5817 225.656 61.4472C225.33 61.3128 224.981 61.2438 224.629 61.2442V59.6563C225.19 59.6557 225.745 59.7659 226.263 59.9807C226.781 60.1954 227.251 60.5103 227.647 60.9074L226.526 62.0278Z" fill="black"/>
<path d="M221.954 63.9251C221.954 64.635 222.236 65.3158 222.737 65.8184C223.238 66.321 223.918 66.6042 224.628 66.6061V68.194C223.496 68.194 222.41 67.7442 221.61 66.9437C220.809 66.1431 220.359 65.0573 220.359 63.9251C220.359 62.7929 220.809 61.7071 221.61 60.9066C222.41 60.106 223.496 59.6563 224.628 59.6562V61.2442C223.918 61.246 223.238 61.5293 222.737 62.0318C222.236 62.5344 221.954 63.2153 221.954 63.9251Z" fill="#41B5AC"/>
<path opacity="0.2" d="M222.738 65.8199L221.617 66.9748C221.22 66.5792 220.905 66.1089 220.69 65.591C220.475 65.073 220.365 64.5177 220.366 63.957H221.954C221.961 64.6568 222.242 65.3258 222.738 65.8199Z" fill="black"/>
<path d="M144.407 109.406H161.036C161.519 109.406 161.982 109.598 162.324 109.94C162.666 110.281 162.858 110.745 162.858 111.228V112.238C162.858 112.722 162.666 113.185 162.324 113.527C161.982 113.868 161.519 114.06 161.036 114.06H144.407V109.406Z" fill="#263238"/>
<path d="M111.899 109.406H147.281C147.729 109.406 148.159 109.584 148.476 109.902C148.794 110.219 148.972 110.649 148.972 111.097V112.342C148.972 112.79 148.794 113.22 148.476 113.537C148.159 113.854 147.729 114.033 147.281 114.033H111.899C111.449 114.033 111.017 113.854 110.698 113.535C110.38 113.217 110.201 112.785 110.201 112.335V111.104C110.2 110.881 110.244 110.66 110.329 110.453C110.414 110.247 110.539 110.059 110.696 109.902C110.854 109.744 111.042 109.619 111.248 109.534C111.455 109.449 111.676 109.405 111.899 109.406Z" fill="black"/>
<path opacity="0.5" d="M111.899 109.406H147.281C147.729 109.406 148.159 109.584 148.476 109.902C148.794 110.219 148.972 110.649 148.972 111.097V112.342C148.972 112.79 148.794 113.22 148.476 113.537C148.159 113.854 147.729 114.033 147.281 114.033H111.899C111.449 114.033 111.017 113.854 110.698 113.535C110.38 113.217 110.201 112.785 110.201 112.335V111.104C110.2 110.881 110.244 110.66 110.329 110.453C110.414 110.247 110.539 110.059 110.696 109.902C110.854 109.744 111.042 109.619 111.248 109.534C111.455 109.449 111.676 109.405 111.899 109.406Z" fill="white"/>
<path d="M139.513 109.412H148.477L142.737 87.9648H139.513V109.412Z" fill="#263238"/>
<path d="M147.171 109.412H128.871L127.05 87.9648H141.431L147.171 109.412Z" fill="black"/>
<path opacity="0.3" d="M147.171 109.412H128.871L127.05 87.9648H141.431L147.171 109.412Z" fill="white"/>
<path d="M193.262 26.34H184.944L178.476 99.9696H186.793C187.653 99.9555 188.478 99.6265 189.111 99.045C189.745 98.4635 190.143 97.6698 190.23 96.8143L196.115 29.5159C196.163 29.1147 196.125 28.7078 196.003 28.3225C195.881 27.9372 195.678 27.5823 195.408 27.2817C195.138 26.981 194.807 26.7415 194.437 26.5791C194.067 26.4167 193.666 26.3352 193.262 26.34Z" fill="#263238"/>
<path d="M184.903 99.9697H84.2095C83.8056 99.9771 83.4048 99.8982 83.0339 99.7384C82.6629 99.5785 82.3303 99.3414 82.0583 99.0427C81.7864 98.744 81.5812 98.3908 81.4567 98.0065C81.3321 97.6223 81.291 97.2159 81.3361 96.8144L87.2204 29.516C87.3094 28.6618 87.7082 27.8698 88.3415 27.2896C88.9748 26.7095 89.7987 26.3815 90.6575 26.3677H191.344C191.747 26.3604 192.147 26.4391 192.518 26.5985C192.888 26.758 193.22 26.9945 193.492 27.2924C193.764 27.5903 193.969 27.9427 194.094 28.3261C194.219 28.7095 194.261 29.1152 194.217 29.516L188.333 96.8144C188.246 97.6688 187.849 98.4615 187.217 99.0429C186.584 99.6243 185.761 99.954 184.903 99.9697Z" fill="#263238"/>
<path opacity="0.7" d="M184.903 99.9697H84.2095C83.8056 99.9771 83.4048 99.8982 83.0339 99.7384C82.6629 99.5785 82.3303 99.3414 82.0583 99.0427C81.7864 98.744 81.5812 98.3908 81.4567 98.0065C81.3321 97.6223 81.291 97.2159 81.3361 96.8144L87.2204 29.516C87.3094 28.6618 87.7082 27.8698 88.3415 27.2896C88.9748 26.7095 89.7987 26.3815 90.6575 26.3677H191.344C191.747 26.3604 192.147 26.4391 192.518 26.5985C192.888 26.758 193.22 26.9945 193.492 27.2924C193.764 27.5903 193.969 27.9427 194.094 28.3261C194.219 28.7095 194.261 29.1152 194.217 29.516L188.333 96.8144C188.246 97.6688 187.849 98.4615 187.217 99.0429C186.584 99.6243 185.761 99.954 184.903 99.9697Z" fill="white"/>
<path opacity="0.9" d="M182.215 91.3482H88.4235C88.0717 91.3556 87.7223 91.2874 87.3991 91.1482C87.0758 91.0091 86.7862 90.8022 86.5497 90.5416C86.3132 90.281 86.1353 89.9727 86.0281 89.6375C85.9209 89.3023 85.8868 88.948 85.9282 88.5985L90.8157 32.6838C90.8896 31.9407 91.2333 31.2505 91.7819 30.7437C92.3304 30.237 93.0457 29.949 93.7923 29.9341H187.584C187.936 29.9268 188.285 29.995 188.608 30.1341C188.932 30.2733 189.221 30.4801 189.458 30.7407C189.694 31.0013 189.872 31.3096 189.979 31.6448C190.086 31.98 190.121 32.3343 190.079 32.6838L185.192 88.5985C185.118 89.3416 184.774 90.0319 184.225 90.5386C183.677 91.0453 182.962 91.3334 182.215 91.3482Z" fill="#FAFAFA"/>
<path d="M157.653 49.7055H154.374L154.945 43.1406H158.23L157.653 49.7055Z" fill="#41B5AC"/>
<path opacity="0.2" d="M157.653 49.7055H154.374L154.945 43.1406H158.23L157.653 49.7055Z" fill="black"/>
<path d="M164.218 49.7071H160.939L161.799 39.8633H165.078L164.218 49.7071Z" fill="#41B5AC"/>
<path d="M170.783 49.7048H167.497L168.219 41.5039H171.498L170.783 49.7048Z" fill="#41B5AC"/>
<path d="M177.348 49.7049H174.062L175.211 36.582H178.496L177.348 49.7049Z" fill="#41B5AC"/>
<path opacity="0.4" d="M177.348 49.7049H174.062L175.211 36.582H178.496L177.348 49.7049Z" fill="black"/>
<path d="M180.627 49.1005H151.755C152.117 44.9302 152.484 40.7575 152.855 36.5826C152.924 35.8058 151.707 35.8058 151.638 36.5826C151.262 40.9546 150.88 45.3289 150.49 49.7054C150.492 49.8653 150.556 50.0181 150.669 50.1312C150.782 50.2443 150.935 50.3086 151.095 50.3104H180.654C180.815 50.3067 180.967 50.2395 181.078 50.1235C181.189 50.0074 181.249 49.8521 181.245 49.6917C181.242 49.5312 181.175 49.3788 181.058 49.268C180.942 49.1571 180.787 49.0969 180.627 49.1005Z" fill="#41B5AC"/>
<path opacity="0.5" d="M180.627 49.1005H151.755C152.117 44.9302 152.484 40.7575 152.855 36.5826C152.924 35.8058 151.707 35.8058 151.638 36.5826C151.262 40.9546 150.88 45.3289 150.49 49.7054C150.492 49.8653 150.556 50.0181 150.669 50.1312C150.782 50.2443 150.935 50.3086 151.095 50.3104H180.654C180.815 50.3067 180.967 50.2395 181.078 50.1235C181.189 50.0074 181.249 49.8521 181.245 49.6917C181.242 49.5312 181.175 49.3788 181.058 49.268C180.942 49.1571 180.787 49.0969 180.627 49.1005Z" fill="white"/>
<path d="M103.546 46.1523L101.408 48.1252C102.058 48.8268 102.847 49.3839 103.726 49.7605C104.605 50.1371 105.553 50.3248 106.509 50.3112L106.749 47.5615C106.146 47.565 105.549 47.4413 104.998 47.1985C104.446 46.9557 103.951 46.5992 103.546 46.1523Z" fill="#41B5AC"/>
<path opacity="0.5" d="M103.546 46.1523L101.408 48.1252C102.058 48.8268 102.847 49.3839 103.726 49.7605C104.605 50.1371 105.553 50.3248 106.509 50.3112L106.749 47.5615C106.146 47.565 105.549 47.4413 104.998 47.1985C104.446 46.9557 103.951 46.5992 103.546 46.1523Z" fill="black"/>
<path d="M111.83 42.8322C111.699 44.1055 111.106 45.2868 110.164 46.153C109.222 47.0193 107.995 47.5106 106.715 47.5341L106.475 50.2838C108.511 50.2474 110.463 49.4664 111.963 48.0884C113.463 46.7103 114.406 44.8307 114.614 42.8047L111.83 42.8322Z" fill="#41B5AC"/>
<path opacity="0.1" d="M111.83 42.8322C111.699 44.1055 111.106 45.2868 110.164 46.153C109.222 47.0193 107.995 47.5106 106.715 47.5341L106.475 50.2838C108.511 50.2474 110.463 49.4664 111.963 48.0884C113.463 46.7103 114.406 44.8307 114.614 42.8047L111.83 42.8322Z" fill="black"/>
<path d="M103.547 46.1523C103.145 45.7051 102.84 45.1787 102.653 44.6069C102.466 44.0351 102.401 43.4306 102.461 42.832H99.7114C99.6139 43.7859 99.7171 44.7495 100.014 45.6611C100.311 46.5727 100.796 47.412 101.437 48.1252L103.547 46.1523Z" fill="#41B5AC"/>
<path d="M107.541 38.1017C108.143 38.0902 108.741 38.2073 109.295 38.4452C109.848 38.6832 110.344 39.0365 110.75 39.4815C111.156 39.9266 111.463 40.4531 111.649 41.026C111.835 41.5989 111.897 42.2049 111.83 42.8036H114.58C114.679 41.8566 114.577 40.8993 114.279 39.9947C113.982 39.09 113.497 38.2585 112.855 37.5548C112.214 36.851 111.431 36.2909 110.558 35.9113C109.684 35.5316 108.741 35.341 107.788 35.352C105.751 35.3886 103.798 36.1706 102.298 37.55C100.798 38.9295 99.8559 40.8108 99.6494 42.838H102.399C102.521 41.5534 103.114 40.3591 104.063 39.4848C105.012 38.6106 106.251 38.118 107.541 38.1017Z" fill="#41B5AC"/>
<path opacity="0.2" d="M107.541 38.1017C108.143 38.0902 108.741 38.2073 109.295 38.4452C109.848 38.6832 110.344 39.0365 110.75 39.4815C111.156 39.9266 111.463 40.4531 111.649 41.026C111.835 41.5989 111.897 42.2049 111.83 42.8036H114.58C114.679 41.8566 114.577 40.8993 114.279 39.9947C113.982 39.09 113.497 38.2585 112.855 37.5548C112.214 36.851 111.431 36.2909 110.558 35.9113C109.684 35.5316 108.741 35.341 107.788 35.352C105.751 35.3886 103.798 36.1706 102.298 37.55C100.798 38.9295 99.8559 40.8108 99.6494 42.838H102.399C102.521 41.5534 103.114 40.3591 104.063 39.4848C105.012 38.6106 106.251 38.118 107.541 38.1017Z" fill="white"/>
<path opacity="0.6" d="M110.743 39.4759L112.881 37.5099C112.234 36.8072 111.446 36.2489 110.568 35.871C109.69 35.4932 108.743 35.3044 107.788 35.317L107.54 38.0667C108.143 38.0623 108.74 38.1857 109.293 38.4285C109.845 38.6714 110.339 39.0283 110.743 39.4759Z" fill="white"/>
<path d="M124.355 46.1523L122.217 48.1252C122.867 48.8265 123.656 49.3834 124.535 49.7599C125.414 50.1365 126.362 50.3243 127.317 50.3112L127.565 47.5615C126.961 47.5656 126.363 47.4421 125.81 47.1993C125.256 46.9565 124.761 46.5997 124.355 46.1523Z" fill="#41B5AC"/>
<path opacity="0.5" d="M124.355 46.1523L122.217 48.1252C122.867 48.8265 123.656 49.3834 124.535 49.7599C125.414 50.1365 126.362 50.3243 127.317 50.3112L127.565 47.5615C126.961 47.5656 126.363 47.4421 125.81 47.1993C125.256 46.9565 124.761 46.5997 124.355 46.1523Z" fill="black"/>
<path d="M132.672 42.8322C132.542 44.1043 131.95 45.2847 131.009 46.1508C130.069 47.0169 128.843 47.5089 127.565 47.5341L127.317 50.2838C129.354 50.2474 131.306 49.4664 132.806 48.0884C134.305 46.7103 135.248 44.8307 135.456 42.8047L132.672 42.8322Z" fill="#41B5AC"/>
<path opacity="0.1" d="M132.672 42.8322C132.542 44.1043 131.95 45.2847 131.009 46.1508C130.069 47.0169 128.843 47.5089 127.565 47.5341L127.317 50.2838C129.354 50.2474 131.306 49.4664 132.806 48.0884C134.305 46.7103 135.248 44.8307 135.456 42.8047L132.672 42.8322Z" fill="black"/>
<path d="M124.355 46.1523C123.953 45.7044 123.65 45.1779 123.463 44.6063C123.276 44.0347 123.21 43.4305 123.269 42.832H120.519C120.422 43.7859 120.525 44.7495 120.822 45.6611C121.119 46.5727 121.604 47.412 122.244 48.1252L124.355 46.1523Z" fill="#41B5AC"/>
<path d="M128.383 38.1017C128.985 38.0902 129.583 38.2073 130.136 38.4452C130.69 38.6832 131.186 39.0365 131.592 39.4815C131.998 39.9266 132.304 40.4531 132.491 41.026C132.677 41.5989 132.739 42.2049 132.672 42.8036H135.422C135.521 41.8566 135.418 40.8993 135.121 39.9947C134.824 39.09 134.339 38.2585 133.697 37.5548C133.056 36.851 132.273 36.2909 131.399 35.9113C130.526 35.5316 129.582 35.341 128.63 35.352C126.593 35.3886 124.64 36.1706 123.14 37.55C121.64 38.9295 120.698 40.8108 120.491 42.838H123.241C123.363 41.5534 123.955 40.3591 124.905 39.4848C125.854 38.6106 127.092 38.118 128.383 38.1017Z" fill="#41B5AC"/>
<path opacity="0.2" d="M128.383 38.1017C128.985 38.0902 129.583 38.2073 130.136 38.4452C130.69 38.6832 131.186 39.0365 131.592 39.4815C131.998 39.9266 132.304 40.4531 132.491 41.026C132.677 41.5989 132.739 42.2049 132.672 42.8036H135.422C135.521 41.8566 135.418 40.8993 135.121 39.9947C134.824 39.09 134.339 38.2585 133.697 37.5548C133.056 36.851 132.273 36.2909 131.399 35.9113C130.526 35.5316 129.582 35.341 128.63 35.352C126.593 35.3886 124.64 36.1706 123.14 37.55C121.64 38.9295 120.698 40.8108 120.491 42.838H123.241C123.363 41.5534 123.955 40.3591 124.905 39.4848C125.854 38.6106 127.092 38.118 128.383 38.1017Z" fill="white"/>
<path opacity="0.6" d="M131.586 39.4759L133.724 37.5099C133.077 36.8072 132.288 36.2489 131.411 35.871C130.533 35.4932 129.586 35.3044 128.63 35.317L128.383 38.0667C128.986 38.0623 129.583 38.1857 130.135 38.4285C130.687 38.6714 131.182 39.0283 131.586 39.4759Z" fill="white"/>
<path d="M155.674 74.055H151.756L152.093 70.1367H156.018L155.674 74.055ZM152.677 73.2026H154.89L155.09 70.9891H152.876L152.677 73.2026Z" fill="#41B5AC"/>
<path d="M155.151 80.0355H151.232L151.569 76.1172H155.494L155.151 80.0355ZM152.16 79.1831H154.374L154.566 76.9696H152.353L152.16 79.1831Z" fill="#41B5AC"/>
<path d="M154.629 85.9817H150.711L151.055 82.0703H154.973L154.629 85.9817ZM151.666 85.1362H153.88L154.072 82.9158H151.859L151.666 85.1362Z" fill="#41B5AC"/>
<path d="M158.389 73.1573C158.267 73.1601 158.145 73.1365 158.032 73.0883C157.919 73.0401 157.818 72.9684 157.736 72.8779C157.653 72.7874 157.591 72.6802 157.553 72.5636C157.515 72.447 157.502 72.3236 157.516 72.2018C157.543 71.9434 157.663 71.7036 157.854 71.5277C158.046 71.3517 158.294 71.2516 158.554 71.2463H171.663C171.786 71.2436 171.908 71.2671 172.02 71.3153C172.133 71.3635 172.234 71.4353 172.317 71.5258C172.399 71.6163 172.462 71.7234 172.5 71.84C172.538 71.9566 172.55 72.08 172.536 72.2018C172.511 72.4608 172.391 72.7014 172.2 72.8777C172.008 73.0539 171.759 73.1535 171.498 73.1573H158.389Z" fill="#41B5AC"/>
<path opacity="0.7" d="M158.389 73.1573C158.267 73.1601 158.145 73.1365 158.032 73.0883C157.919 73.0401 157.818 72.9684 157.736 72.8779C157.653 72.7874 157.591 72.6802 157.553 72.5636C157.515 72.447 157.502 72.3236 157.516 72.2018C157.543 71.9434 157.663 71.7036 157.854 71.5277C158.046 71.3517 158.294 71.2516 158.554 71.2463H171.663C171.786 71.2436 171.908 71.2671 172.02 71.3153C172.133 71.3635 172.234 71.4353 172.317 71.5258C172.399 71.6163 172.462 71.7234 172.5 71.84C172.538 71.9566 172.55 72.08 172.536 72.2018C172.511 72.4608 172.391 72.7014 172.2 72.8777C172.008 73.0539 171.759 73.1535 171.498 73.1573H158.389Z" fill="white"/>
<path d="M157.351 84.9853C157.229 84.9859 157.108 84.9609 156.996 84.9119C156.885 84.863 156.784 84.7912 156.702 84.7012C156.62 84.6112 156.557 84.5049 156.519 84.3893C156.48 84.2737 156.466 84.1512 156.478 84.0298C156.504 83.7702 156.626 83.5295 156.818 83.3534C157.011 83.1773 157.261 83.078 157.522 83.0743H168.521C168.643 83.0726 168.764 83.0968 168.876 83.1455C168.988 83.1941 169.088 83.266 169.17 83.3564C169.252 83.4468 169.314 83.5536 169.351 83.6697C169.389 83.7858 169.401 83.9086 169.387 84.0298C169.361 84.2883 169.24 84.528 169.049 84.704C168.858 84.88 168.609 84.98 168.349 84.9853H157.351Z" fill="#41B5AC"/>
<path opacity="0.4" d="M157.351 84.9853C157.229 84.9859 157.108 84.9609 156.996 84.9119C156.885 84.863 156.784 84.7912 156.702 84.7012C156.62 84.6112 156.557 84.5049 156.519 84.3893C156.48 84.2737 156.466 84.1512 156.478 84.0298C156.504 83.7702 156.626 83.5295 156.818 83.3534C157.011 83.1773 157.261 83.078 157.522 83.0743H168.521C168.643 83.0726 168.764 83.0968 168.876 83.1455C168.988 83.1941 169.088 83.266 169.17 83.3564C169.252 83.4468 169.314 83.5536 169.351 83.6697C169.389 83.7858 169.401 83.9086 169.387 84.0298C169.361 84.2883 169.24 84.528 169.049 84.704C168.858 84.88 168.609 84.98 168.349 84.9853H157.351Z" fill="white"/>
<path d="M157.852 79.0166C157.73 79.0182 157.609 78.9939 157.497 78.9453C157.384 78.8968 157.284 78.825 157.201 78.7347C157.119 78.6445 157.056 78.5378 157.018 78.4217C156.98 78.3056 156.967 78.1827 156.979 78.0611C157.006 77.8015 157.127 77.5608 157.32 77.3846C157.513 77.2085 157.763 77.1092 158.024 77.1055H168.164C168.286 77.1039 168.407 77.1282 168.519 77.1768C168.631 77.2253 168.732 77.2971 168.814 77.3874C168.897 77.4776 168.959 77.5843 168.998 77.7004C169.036 77.8166 169.049 77.9395 169.037 78.0611C169.01 78.3195 168.89 78.5593 168.698 78.7352C168.507 78.9112 168.258 79.0112 167.999 79.0166H157.852Z" fill="#41B5AC"/>
<path opacity="0.2" d="M157.852 79.0166C157.73 79.0182 157.609 78.9939 157.497 78.9453C157.384 78.8968 157.284 78.825 157.201 78.7347C157.119 78.6445 157.056 78.5378 157.018 78.4217C156.98 78.3056 156.967 78.1827 156.979 78.0611C157.006 77.8015 157.127 77.5608 157.32 77.3846C157.513 77.2085 157.763 77.1092 158.024 77.1055H168.164C168.286 77.1039 168.407 77.1282 168.519 77.1768C168.631 77.2253 168.732 77.2971 168.814 77.3874C168.897 77.4776 168.959 77.5843 168.998 77.7004C169.036 77.8166 169.049 77.9395 169.037 78.0611C169.01 78.3195 168.89 78.5593 168.698 78.7352C168.507 78.9112 168.258 79.0112 167.999 79.0166H157.852Z" fill="white"/>
<path d="M145.156 79.7322C144.175 78.3573 143.187 77.0077 142.193 75.6833C142.144 75.6043 142.078 75.5372 142 75.487C141.922 75.4367 141.833 75.4045 141.741 75.3926C141.649 75.3808 141.555 75.3896 141.467 75.4185C141.379 75.4473 141.298 75.4955 141.23 75.5595L138.089 78.9966C137.264 77.6218 136.446 76.2951 135.621 74.9408C135.574 74.8604 135.508 74.7917 135.431 74.74C135.353 74.6883 135.264 74.6549 135.172 74.6423C135.079 74.6298 134.985 74.6383 134.896 74.6674C134.807 74.6965 134.726 74.7453 134.659 74.8102C133.573 75.807 132.514 76.8381 131.4 77.8074C131.07 77.6286 130.713 77.4224 130.424 77.2299L128.637 76.1713C128.496 76.0925 128.33 76.0714 128.173 76.1125C128.017 76.1535 127.883 76.2534 127.798 76.3913L124.622 80.9901C123.834 79.4595 123.046 77.9265 122.258 76.3913C122.173 76.2534 122.039 76.1535 121.883 76.1125C121.726 76.0714 121.56 76.0925 121.419 76.1713L119.9 76.9825C119.597 77.1543 118.525 77.6699 118.264 77.8967C117.84 77.6086 117.4 77.3469 116.944 77.1131L115.356 76.1713C115.216 76.0893 115.048 76.0664 114.891 76.1076C114.734 76.1489 114.599 76.2509 114.517 76.3913C114.435 76.5317 114.412 76.6989 114.454 76.8562C114.495 77.0135 114.597 77.1479 114.737 77.2299C115.617 77.7524 117.185 79.2028 118.223 79.196C119.261 79.1891 120.498 78.2061 121.481 77.5668L124.018 82.4887C124.073 82.5798 124.15 82.6551 124.243 82.7074C124.336 82.7596 124.44 82.7871 124.547 82.7871C124.653 82.7871 124.758 82.7596 124.851 82.7074C124.943 82.6551 125.021 82.5798 125.076 82.4887L128.513 77.5187L131.18 79.0929C131.298 79.159 131.434 79.1854 131.568 79.1681C131.701 79.1507 131.826 79.0906 131.923 78.9966L134.961 76.2057L137.47 80.3302C137.518 80.4102 137.584 80.4783 137.662 80.5293C137.74 80.5803 137.829 80.613 137.922 80.6249C138.014 80.6368 138.108 80.6276 138.197 80.598C138.285 80.5684 138.366 80.5192 138.433 80.4539L141.622 76.9344L144.104 80.3302C144.564 80.9764 145.623 80.3646 145.156 79.7322Z" fill="#41B5AC"/>
<path d="M144.167 84.7578H114.958C115.329 80.5371 115.698 76.3163 116.065 72.0956C116.134 71.3119 114.91 71.3119 114.841 72.0956L113.68 85.3696C113.681 85.5313 113.747 85.6859 113.861 85.8003C113.975 85.9146 114.13 85.9796 114.291 85.9814H144.167C144.329 85.9814 144.485 85.917 144.599 85.8022C144.714 85.6875 144.779 85.5319 144.779 85.3696C144.779 85.2074 144.714 85.0518 144.599 84.937C144.485 84.8223 144.329 84.7578 144.167 84.7578Z" fill="#41B5AC"/>
<path opacity="0.5" d="M144.167 84.7578H114.958C115.329 80.5371 115.698 76.3163 116.065 72.0956C116.134 71.3119 114.91 71.3119 114.841 72.0956L113.68 85.3696C113.681 85.5313 113.747 85.6859 113.861 85.8003C113.975 85.9146 114.13 85.9796 114.291 85.9814H144.167C144.329 85.9814 144.485 85.917 144.599 85.8022C144.714 85.6875 144.779 85.5319 144.779 85.3696C144.779 85.2074 144.714 85.0518 144.599 84.937C144.485 84.8223 144.329 84.7578 144.167 84.7578Z" fill="white"/>
<path d="M175.966 66.7586H123.839L125.001 53.457H177.128L175.966 66.7586Z" fill="#41B5AC"/>
<path opacity="0.9" d="M175.966 66.7586H123.839L125.001 53.457H177.128L175.966 66.7586Z" fill="white"/>
<path d="M176.887 67.7718H122.739L124.114 52.4492H178.262L176.887 67.7718ZM124.939 65.7508H175.038L176.028 54.4771H125.929L124.939 65.7508Z" fill="#263238"/>
<path d="M135.615 61.8929L135.519 62.9515H131.126L131.621 57.2734H135.91L135.821 58.3252H132.838L132.728 59.5625H135.36L135.271 60.5799H132.638L132.521 61.8929H135.615Z" fill="#41B5AC"/>
<path d="M140.083 62.9515L138.887 60.9786L137.368 62.9515H135.855L138.206 60.0644L136.454 57.2734H137.945L139.093 59.1157L140.53 57.2734H141.953L139.733 60.0231L141.595 62.9584L140.083 62.9515Z" fill="#41B5AC"/>
<path d="M143.63 58.3458H141.815L141.912 57.2734H146.854L146.765 58.3458H144.95L144.544 62.9515H143.232L143.63 58.3458Z" fill="#41B5AC"/>
<path d="M150.683 62.9526L149.728 61.3715H148.518L148.38 62.9526H147.067L147.562 57.2745H150.016C150.46 57.2627 150.901 57.3472 151.309 57.522C151.636 57.6648 151.912 57.9048 152.099 58.2094C152.277 58.547 152.349 58.9303 152.306 59.3093C152.276 59.7013 152.138 60.0774 151.907 60.3954C151.665 60.7043 151.345 60.9419 150.979 61.0828L152.092 62.9114L150.683 62.9526ZM150.731 58.6012C150.479 58.4119 150.166 58.3214 149.851 58.3469H148.779L148.607 60.3198H149.68C150.006 60.3404 150.331 60.2509 150.601 60.0654C150.71 59.9766 150.799 59.8658 150.863 59.7403C150.927 59.6149 150.964 59.4774 150.972 59.3368C150.993 59.2039 150.983 59.0678 150.941 58.9399C150.899 58.8119 150.827 58.6958 150.731 58.6012Z" fill="#41B5AC"/>
<path d="M156.869 61.7348H154.237L153.625 62.9515H152.25L155.275 57.2734H156.574L158.636 62.9515H157.261L156.869 61.7348ZM156.539 60.7312L155.852 58.5589L154.766 60.7312H156.539Z" fill="#41B5AC"/>
<path d="M160.328 62.669C159.893 62.43 159.541 62.0659 159.317 61.6241C159.08 61.1576 158.987 60.6313 159.049 60.1118C159.091 59.5702 159.273 59.0489 159.578 58.5994C159.883 58.1559 160.294 57.7964 160.774 57.5546C161.272 57.2996 161.824 57.1698 162.383 57.1765C162.834 57.1671 163.281 57.2538 163.696 57.4308C164.065 57.5993 164.386 57.8567 164.631 58.1801L163.717 58.9569C163.56 58.7393 163.354 58.563 163.114 58.4433C162.875 58.3235 162.609 58.2639 162.342 58.2695C162.009 58.2654 161.681 58.3433 161.386 58.4963C161.103 58.6454 160.865 58.8688 160.699 59.1425C160.516 59.4247 160.407 59.7487 160.383 60.0843C160.346 60.4061 160.398 60.7318 160.534 61.026C160.657 61.2947 160.862 61.5181 161.118 61.6653C161.398 61.8269 161.717 61.9078 162.039 61.899C162.322 61.8973 162.6 61.8351 162.856 61.7165C163.112 61.5979 163.34 61.4258 163.524 61.2116L164.301 61.9884C164.005 62.3176 163.638 62.576 163.229 62.7446C162.792 62.9232 162.325 63.012 161.854 63.0058C161.325 63.0254 160.799 62.9094 160.328 62.669Z" fill="#41B5AC"/>
<path d="M166.618 58.3458H164.803L164.899 57.2734H169.842L169.752 58.3458H167.931L167.532 62.9515H166.219L166.618 58.3458Z" fill="#41B5AC"/>
<path d="M213.114 118.758H71.7598V197.79H213.114V118.758Z" fill="#41B5AC"/>
<path d="M61.3251 197.789H74.5098L74.5098 118.756H61.3251L61.3251 197.789Z" fill="#41B5AC"/>
<path opacity="0.3" d="M61.3251 197.789H74.5098L74.5098 118.756H61.3251L61.3251 197.789Z" fill="white"/>
<path d="M203.298 118.758H58.5547V125.749H203.298V118.758Z" fill="#41B5AC"/>
<path opacity="0.6" d="M203.298 118.758H58.5547V125.749H203.298V118.758Z" fill="white"/>
<path d="M61.3247 118.758H55.791V197.79H61.3247V118.758Z" fill="#41B5AC"/>
<path opacity="0.5" d="M61.3247 118.758H55.791V197.79H61.3247V118.758Z" fill="white"/>
<path d="M207.161 197.789H220.346V118.756H207.161V197.789Z" fill="#41B5AC"/>
<path opacity="0.3" d="M207.161 197.789H220.346V118.756H207.161V197.789Z" fill="white"/>
<path d="M211.712 120.262H223.666V114.192H211.712V120.262Z" fill="#41B5AC"/>
<path opacity="0.3" d="M211.712 120.262H223.666V114.192H211.712V120.262Z" fill="white"/>
<path d="M197.853 129.523H138.137V197.791H197.853V129.523Z" fill="#41B5AC"/>
<path opacity="0.5" d="M197.853 129.523H138.137V197.791H197.853V129.523Z" fill="white"/>
<path d="M201.627 129.523H197.854V197.791H201.627V129.523Z" fill="#41B5AC"/>
<path opacity="0.2" d="M201.627 129.523H197.854V197.791H201.627V129.523Z" fill="white"/>
<path d="M194.079 151.945H141.911V167.735H194.079V151.945Z" fill="#41B5AC"/>
<path d="M194.079 133.242H141.911V149.032H194.079V133.242Z" fill="#41B5AC"/>
<path d="M194.079 170.648H141.911V186.438H194.079V170.648Z" fill="#41B5AC"/>
<g opacity="0.7">
<path d="M194.079 151.949H141.911V167.739H194.079V151.949Z" fill="white"/>
<path d="M194.079 133.242H141.911V149.032H194.079V133.242Z" fill="white"/>
<path d="M194.079 170.652H141.911V186.442H194.079V170.652Z" fill="white"/>
</g>
<path d="M207.161 118.758H201.627V197.79H207.161V118.758Z" fill="#41B5AC"/>
<path opacity="0.1" d="M213.114 118.758H71.7598V197.79H213.114V118.758Z" fill="white"/>
<path opacity="0.5" d="M207.161 118.758H201.627V197.79H207.161V118.758Z" fill="white"/>
<path d="M211.705 114.199H51.2402V120.269H211.705V114.199Z" fill="#41B5AC"/>
<path opacity="0.6" d="M211.705 114.199H51.2402V120.269H211.705V114.199Z" fill="white"/>
<path d="M168.163 139.422H166.355C165.899 139.422 165.462 139.603 165.14 139.925C164.818 140.247 164.637 140.685 164.637 141.14C164.637 141.596 164.818 142.033 165.14 142.356C165.462 142.678 165.899 142.859 166.355 142.859H168.163C168.619 142.859 169.056 142.678 169.378 142.356C169.701 142.033 169.882 141.596 169.882 141.14C169.882 140.685 169.701 140.247 169.378 139.925C169.056 139.603 168.619 139.422 168.163 139.422Z" fill="#41B5AC"/>
<path d="M168.163 158.125H166.355C165.899 158.125 165.462 158.306 165.14 158.628C164.818 158.951 164.637 159.388 164.637 159.844C164.637 160.299 164.818 160.736 165.14 161.059C165.462 161.381 165.899 161.562 166.355 161.562H168.163C168.619 161.562 169.056 161.381 169.378 161.059C169.701 160.736 169.882 160.299 169.882 159.844C169.882 159.388 169.701 158.951 169.378 158.628C169.056 158.306 168.619 158.125 168.163 158.125Z" fill="#41B5AC"/>
<path d="M168.163 176.832H166.355C165.899 176.832 165.462 177.013 165.14 177.335C164.818 177.658 164.637 178.095 164.637 178.551C164.637 179.006 164.818 179.443 165.14 179.766C165.462 180.088 165.899 180.269 166.355 180.269H168.163C168.619 180.269 169.056 180.088 169.378 179.766C169.701 179.443 169.882 179.006 169.882 178.551C169.882 178.095 169.701 177.658 169.378 177.335C169.056 177.013 168.619 176.832 168.163 176.832Z" fill="#41B5AC"/>
<path opacity="0.3" d="M168.053 141.14C168.053 141.48 167.953 141.813 167.764 142.095C167.575 142.378 167.306 142.598 166.992 142.728C166.678 142.858 166.333 142.892 165.999 142.826C165.666 142.76 165.36 142.596 165.12 142.356C164.879 142.115 164.716 141.809 164.649 141.476C164.583 141.142 164.617 140.797 164.747 140.483C164.877 140.169 165.097 139.9 165.38 139.712C165.663 139.523 165.995 139.422 166.335 139.422C166.791 139.422 167.228 139.603 167.55 139.925C167.872 140.247 168.053 140.685 168.053 141.14Z" fill="#FAFAFA"/>
<path opacity="0.3" d="M168.053 159.844C168.053 160.183 167.953 160.516 167.764 160.798C167.575 161.081 167.306 161.301 166.992 161.431C166.678 161.561 166.333 161.595 165.999 161.529C165.666 161.463 165.36 161.299 165.12 161.059C164.879 160.818 164.716 160.512 164.649 160.179C164.583 159.845 164.617 159.5 164.747 159.186C164.877 158.872 165.097 158.603 165.38 158.415C165.663 158.226 165.995 158.125 166.335 158.125C166.791 158.125 167.228 158.306 167.55 158.628C167.872 158.951 168.053 159.388 168.053 159.844Z" fill="#FAFAFA"/>
<path opacity="0.3" d="M168.053 178.551C168.053 178.89 167.953 179.223 167.764 179.505C167.575 179.788 167.306 180.008 166.992 180.138C166.678 180.268 166.333 180.302 165.999 180.236C165.666 180.17 165.36 180.006 165.12 179.766C164.879 179.525 164.716 179.219 164.649 178.886C164.583 178.552 164.617 178.207 164.747 177.893C164.877 177.579 165.097 177.31 165.38 177.122C165.663 176.933 165.995 176.832 166.335 176.832C166.791 176.832 167.228 177.013 167.55 177.335C167.872 177.658 168.053 178.095 168.053 178.551Z" fill="#FAFAFA"/>
<path d="M107.904 45.0525C106.921 46.4274 109.087 50.8612 109.087 50.8612L99.332 52.0367L101.243 41.4023C101.243 41.4023 109.045 43.4165 107.904 45.0525Z" fill="#CE7A63"/>
<path opacity="0.2" d="M107.753 47.041C107.555 46.3807 107.609 45.6703 107.904 45.0475C108.592 44.0301 105.842 42.8684 103.69 42.1328C104.233 43.1777 105.67 45.7899 107.753 47.041Z" fill="black"/>
<path d="M131.407 190.359L132.445 200.279L127.867 201.138L125.117 191.562L131.407 190.359Z" fill="#CE7A63"/>
<path d="M132.349 198.581L126.967 199.647C126.868 199.667 126.779 199.72 126.714 199.797C126.649 199.875 126.612 199.972 126.609 200.073L126.513 204.644C126.507 204.835 126.576 205.02 126.704 205.161C126.832 205.302 127.01 205.388 127.2 205.4C127.251 205.407 127.302 205.407 127.352 205.4C129.29 204.981 130.995 204.527 133.408 204.025C136.261 203.455 135.601 203.943 138.962 203.338C140.99 202.96 140.901 200.588 140.021 200.65C136.006 200.946 135.36 199.839 133.566 198.739C133.191 198.547 132.761 198.491 132.349 198.581Z" fill="#263238"/>
<path opacity="0.2" d="M126.932 197.887L132.122 197.206L131.407 190.359L125.117 191.562L126.932 197.887Z" fill="black"/>
<path d="M91.8123 188.343L88.6914 200.648L84.2988 200.029L85.4674 187.992L91.8123 188.343Z" fill="#CE7A63"/>
<path d="M89.2748 199.104L83.7754 198.72C83.6753 198.714 83.5761 198.742 83.4938 198.799C83.4115 198.856 83.3509 198.94 83.3217 199.036L82.0156 203.415C81.9596 203.601 81.9794 203.803 82.0708 203.975C82.1621 204.148 82.3176 204.277 82.5037 204.336H82.6618C84.6347 204.439 86.4013 204.459 88.8486 204.631C91.7495 204.838 90.9864 205.133 94.396 205.422C96.4583 205.594 96.9876 203.284 96.1215 203.112C92.1757 202.328 91.8457 201.091 90.409 199.558C90.0959 199.278 89.6944 199.118 89.2748 199.104Z" fill="#263238"/>
<path opacity="0.2" d="M84.5664 197.233L89.3783 197.968L91.6743 188.901C89.5708 188.674 86.12 188.33 85.4463 188.262L84.5664 197.233Z" fill="black"/>
<path d="M96.5624 94.1467C96.5624 94.1467 95.0501 98.5462 94.8301 109.27C94.6926 115.663 94.0671 125.768 93.5859 132.91C93.4484 134.973 93.3178 136.815 93.2147 138.21C93.0859 139.983 92.6728 141.724 91.9911 143.366C91.5236 144.507 90.9393 146.074 90.3344 148.02C89.1271 151.972 88.2578 156.019 87.7359 160.118C86.1342 172.107 84.2988 195.342 84.2988 195.342L90.2313 196.112L104.846 141.964L120.416 94.1055L96.5624 94.1467Z" fill="#263238"/>
<path opacity="0.2" d="M112.063 119.969L111.437 115.253L106.337 110.971L104.625 110.125C107.193 117.547 108.206 125.419 107.602 133.25L112.063 119.969Z" fill="black"/>
<path d="M125.042 94.3657L132.184 194.935L126.135 195.966C126.135 195.966 118.051 168.133 116.683 152.748C116.521 151.118 116.461 149.478 116.504 147.84C116.566 145.747 116.29 143.658 115.686 141.653L114.834 138.787L110.07 122.653C109.104 119.279 107.503 116.12 105.354 113.345C102.873 110.218 99.807 104.155 101.079 94.0976L123.482 92.5234L125.042 94.3657Z" fill="#263238"/>
<path d="M102.673 88.0162C102.673 88.0162 106.145 87.3288 107.313 87.4182C108.586 87.7155 109.83 88.1226 111.032 88.6349C111.298 88.7209 111.536 88.8751 111.723 89.082C111.911 89.2889 112.04 89.5414 112.099 89.8142C112.159 90.0869 112.145 90.3705 112.06 90.6364C111.976 90.9023 111.823 91.1413 111.616 91.3296C111.616 91.3296 109.712 93.7768 108.757 93.983C106.853 94.3817 101.395 91.4602 101.395 91.4602L102.673 88.0162Z" fill="#CE7A63"/>
<path d="M102.501 86.3516L100.576 92.5727L102.425 92.7308L104.123 87.2933L102.501 86.3516Z" fill="#263238"/>
<path opacity="0.2" d="M102.501 86.3516L100.576 92.5727L102.425 92.7308L104.123 87.2933L102.501 86.3516Z" fill="white"/>
<path d="M91.0764 56.7083C90.8644 56.4313 90.5842 56.214 90.2631 56.0779C89.942 55.9417 89.591 55.8912 89.2446 55.9314C88.8981 55.9716 88.568 56.101 88.2866 56.3071C88.0052 56.5132 87.7821 56.7888 87.6393 57.107C85.4739 61.7402 80.0089 74.0244 79.9883 79.9912C79.9883 87.4222 101.814 91.8217 101.814 91.8217L103.134 87.5528L88.1205 78.3139L92.4443 68.1195C92.4443 68.1195 93.5167 60.0561 91.0764 56.7083Z" fill="#41B5AC"/>
<path opacity="0.1" d="M91.0764 56.7083C90.8644 56.4313 90.5842 56.214 90.2631 56.0779C89.942 55.9417 89.591 55.8912 89.2446 55.9314C88.8981 55.9716 88.568 56.101 88.2866 56.3071C88.0052 56.5132 87.7821 56.7888 87.6393 57.107C85.4739 61.7402 80.0089 74.0244 79.9883 79.9912C79.9883 87.4222 101.814 91.8217 101.814 91.8217L103.134 87.5528L88.1205 78.3139L92.4443 68.1195C92.4443 68.1195 93.5167 60.0561 91.0764 56.7083Z" fill="black"/>
<g opacity="0.4">
<path d="M91.5227 57.4531L89.1649 57.7762L87.79 58.7455L89.4055 75.2436L92.4233 68.1356C92.4233 68.1356 93.3788 61.1102 91.5227 57.4531Z" fill="black"/>
<path d="M96.0738 83.2041L89.832 79.3477L90.7394 88.6141C92.0455 89.1021 93.3516 89.5352 94.589 89.9202L96.0738 83.2041Z" fill="black"/>
</g>
<path d="M124.705 94.3109C124.705 94.3109 113.947 97.8305 96.3282 94.9984L87.8799 59.4106C87.5968 58.1007 87.7466 56.7343 88.307 55.5169C88.8673 54.2995 89.8078 53.297 90.987 52.6602C94.6097 50.6529 101.786 48.7694 115.94 49.5462C117.641 49.6413 119.265 50.2838 120.571 51.3777C121.877 52.4716 122.794 53.9583 123.186 55.6161L124.705 94.3109Z" fill="#41B5AC"/>
<path d="M96.4521 51.0175L97.5245 48.4947C97.5245 48.4947 101.766 46.35 108.956 47.3605L110.668 49.3402C110.668 49.3402 102.618 49.5327 96.4521 51.0175Z" fill="#263238"/>
<path d="M113.005 32.5358C113.101 32.9345 112.964 33.3126 112.696 33.3676C112.428 33.4226 112.112 33.1408 112.009 32.7489C111.905 32.3571 112.009 31.9721 112.311 31.9172C112.613 31.8622 112.902 32.1371 113.005 32.5358Z" fill="#263238"/>
<path d="M112.641 33.7461L115.39 36.4339C115.064 36.7475 114.67 36.9814 114.238 37.1174C113.806 37.2533 113.349 37.2876 112.902 37.2176L112.641 33.7461Z" fill="#BA4D3C"/>
<path d="M96.9675 34.3306C98.0192 39.7131 98.3423 42.0229 101.511 44.4769C106.172 46.8073 112.833 45.783 113.445 40.2012C114.002 35.183 112.194 27.2364 106.461 25.6829C104.526 25.1389 102.454 25.3813 100.697 26.3571C98.9395 27.333 97.6387 28.9634 97.0775 30.8935C96.7663 32.0139 96.7286 33.1926 96.9675 34.3306Z" fill="#CE7A63"/>
<path d="M110.977 31.2709C111.014 31.2716 111.05 31.2631 111.082 31.2463C111.115 31.2295 111.143 31.2049 111.163 31.1747C111.308 30.9473 111.506 30.7576 111.739 30.6214C111.972 30.4852 112.234 30.4062 112.504 30.391C112.532 30.3929 112.56 30.389 112.587 30.3795C112.613 30.37 112.638 30.3551 112.658 30.3357C112.679 30.3164 112.695 30.293 112.707 30.267C112.718 30.2411 112.724 30.2131 112.723 30.1848C112.723 30.1265 112.7 30.0705 112.659 30.0293C112.618 29.988 112.562 29.9648 112.504 29.9648C112.161 29.9703 111.825 30.0612 111.526 30.2292C111.227 30.3973 110.975 30.6372 110.792 30.9272C110.762 30.9761 110.752 31.0345 110.763 31.0906C110.775 31.1467 110.807 31.1964 110.854 31.2297C110.891 31.2525 110.934 31.2666 110.977 31.2709Z" fill="#263238"/>
<path opacity="0.4" d="M124.354 76.7687L123.632 63.7078L118.971 57.521L116.421 55.1562L114.455 56.5311C114.455 56.5311 114.723 63.7627 124.354 76.7687Z" fill="black"/>
<path d="M125.867 58.2353C128.451 62.9785 129.448 65.7969 130.335 66.9587C130.391 67.0364 130.468 67.0973 130.556 67.1348C130.645 67.1724 130.742 67.1851 130.837 67.1718L145.926 64.9789C146.051 64.9597 146.18 64.9857 146.288 65.0525C146.396 65.1192 146.478 65.2223 146.517 65.3433L147.734 69.0759C147.757 69.1436 147.767 69.2153 147.762 69.2868C147.758 69.3583 147.739 69.4281 147.707 69.4922C147.675 69.5563 147.63 69.6133 147.576 69.6599C147.521 69.7064 147.458 69.7416 147.39 69.7634L133.243 74.5753C131.988 75.066 130.622 75.2024 129.294 74.9697C127.967 74.7369 126.729 74.1439 125.716 73.2555C121.696 69.7287 118.424 65.4326 116.092 60.6207C115.006 58.4759 112.483 54.5026 116.628 50.9968C120.044 48.089 124.169 55.0869 125.867 58.2353Z" fill="#41B5AC"/>
<path opacity="0.1" d="M125.867 58.2353C128.451 62.9785 129.448 65.7969 130.335 66.9587C130.391 67.0364 130.468 67.0973 130.556 67.1348C130.645 67.1724 130.742 67.1851 130.837 67.1718L145.926 64.9789C146.051 64.9597 146.18 64.9857 146.288 65.0525C146.396 65.1192 146.478 65.2223 146.517 65.3433L147.734 69.0759C147.757 69.1436 147.767 69.2153 147.762 69.2868C147.758 69.3583 147.739 69.4281 147.707 69.4922C147.675 69.5563 147.63 69.6133 147.576 69.6599C147.521 69.7064 147.458 69.7416 147.39 69.7634L133.243 74.5753C131.988 75.066 130.622 75.2024 129.294 74.9697C127.967 74.7369 126.729 74.1439 125.716 73.2555C121.696 69.7287 118.424 65.4326 116.092 60.6207C115.006 58.4759 112.483 54.5026 116.628 50.9968C120.044 48.089 124.169 55.0869 125.867 58.2353Z" fill="white"/>
<path d="M146.366 65.3382L149.473 61.6811C149.809 61.2827 150.257 60.9932 150.758 60.8494L158.079 58.7184C158.199 58.6856 158.327 58.6951 158.441 58.7451C158.555 58.7952 158.648 58.8828 158.705 58.9933C158.739 59.0595 158.759 59.1321 158.763 59.2065C158.768 59.2808 158.757 59.3553 158.731 59.4251C158.705 59.495 158.665 59.5587 158.613 59.6122C158.561 59.6656 158.499 59.7077 158.43 59.7357L155.405 60.9731C155.3 61.0154 155.211 61.0903 155.152 61.1868C155.092 61.2833 155.066 61.3964 155.075 61.5093L155.226 63.3378C155.271 63.8851 155.145 64.4327 154.867 64.9061C154.589 65.3796 154.172 65.7561 153.673 65.9844L151.473 66.988L151.219 67.0843L147.438 68.356C147.368 68.38 147.293 68.3889 147.219 68.3822C147.145 68.3754 147.073 68.3532 147.008 68.3169C146.944 68.2806 146.887 68.231 146.843 68.1714C146.798 68.1118 146.767 68.0435 146.751 67.971L146.249 65.8057C146.231 65.724 146.232 65.6393 146.253 65.5583C146.273 65.4772 146.312 65.4019 146.366 65.3382Z" fill="#CE7A63"/>
<path d="M145.478 64.9601L147.341 69.662C147.369 69.7307 147.41 69.793 147.463 69.8451C147.515 69.8972 147.578 69.938 147.647 69.9651C147.716 69.9921 147.789 70.0048 147.863 70.0023C147.937 69.9998 148.01 69.9823 148.077 69.9507L148.696 69.6483C148.818 69.5886 148.914 69.4842 148.963 69.3564C149.011 69.2286 149.009 69.0871 148.957 68.9609L147.183 64.4514C147.137 64.3383 147.055 64.2439 146.949 64.1829C146.843 64.1219 146.72 64.0978 146.599 64.1145L145.911 64.2245C145.829 64.2343 145.751 64.2628 145.682 64.308C145.612 64.3532 145.555 64.4137 145.513 64.4849C145.471 64.5561 145.446 64.6361 145.44 64.7185C145.434 64.8009 145.447 64.8836 145.478 64.9601Z" fill="#263238"/>
<path d="M124.952 194.539L125.887 197.021L133.016 195.921L132.816 193.281L124.952 194.539Z" fill="#41B5AC"/>
<path opacity="0.2" d="M124.952 194.539L125.887 197.021L133.016 195.921L132.816 193.281L124.952 194.539Z" fill="black"/>
<path d="M83.6178 193.535L83.5078 196.147L90.657 197.103L91.2138 194.511L83.6178 193.535Z" fill="#41B5AC"/>
<path opacity="0.2" d="M83.6178 193.535L83.5078 196.147L90.657 197.103L91.2138 194.511L83.6178 193.535Z" fill="black"/>
<path d="M100.652 44.6396C100.652 44.6396 101.45 43.5054 103.856 44.8184C103.856 44.8184 107.293 40.9894 107.375 37.408C107.375 37.408 109.898 36.9474 109.692 35.3114C109.486 33.6753 108.276 31.5512 108.53 30.0732C108.785 28.5953 111.239 24.7182 109.156 22.9928C107.073 21.2674 106.825 23.3228 105.643 23.5427C104.461 23.7627 97.3391 24.0239 96.4248 29.0421C95.3932 30.208 94.7851 31.6879 94.6991 33.2423C94.613 34.7967 95.0539 36.3346 95.9505 37.6073C99.0645 42.4605 100.652 44.6396 100.652 44.6396Z" fill="#263238"/>
<path d="M107.485 34.0465L113.727 30.6094C113.727 30.6094 115.294 34.6926 114.538 34.8989C113.782 35.1051 112.799 31.8948 112.799 31.8948L108.358 33.9777L107.485 34.0465Z" fill="#41B5AC"/>
<path opacity="0.7" d="M112.957 31.9772L113.431 31.6953C113.431 31.6953 114.717 34.5825 114.366 34.8368C114.016 35.0912 112.957 31.9772 112.957 31.9772Z" fill="white"/>
<path d="M108.358 34.1684C108.825 34.4786 109.226 34.8783 109.537 35.3444C109.849 35.8104 110.065 36.3336 110.173 36.8837C110.448 38.341 109.073 38.946 107.732 38.4235C106.522 37.9561 104.928 36.6294 105.264 35.2133C105.348 34.9009 105.507 34.6139 105.728 34.3779C105.949 34.1419 106.225 33.9643 106.531 33.8608C106.837 33.7574 107.164 33.7313 107.483 33.785C107.802 33.8387 108.102 33.9704 108.358 34.1684Z" fill="#CE7A63"/>
</g>
<defs>
<clipPath id="clip0_765_3472">
<rect width="262" height="205" fill="white"/>
</clipPath>
</defs>
</svg>
