<svg width="24" height="24" viewBox="0 0 24 24" fill="none" xmlns="http://www.w3.org/2000/svg">
<path d="M12 2.25391C10.0716 2.25391 8.18657 2.82573 6.58319 3.89708C4.97982 4.96842 3.73013 6.49116 2.99218 8.27274C2.25422 10.0543 2.06114 12.0147 2.43735 13.906C2.81355 15.7974 3.74215 17.5346 5.10571 18.8982C6.46928 20.2618 8.20656 21.1904 10.0979 21.5666C11.9892 21.9428 13.9496 21.7497 15.7312 21.0117C17.5127 20.2738 19.0355 19.0241 20.1068 17.4207C21.1782 15.8173 21.75 13.9323 21.75 12.0039C21.7473 9.41888 20.7192 6.94052 18.8913 5.11263C17.0634 3.28474 14.585 2.25664 12 2.25391ZM15.8016 12.6208L10.9266 15.9958C10.814 16.0736 10.6823 16.1192 10.5458 16.1275C10.4092 16.1358 10.2729 16.1067 10.1517 16.0431C10.0306 15.9796 9.92907 15.8841 9.85825 15.767C9.78744 15.65 9.75001 15.5157 9.75 15.3789V8.62891C9.75001 8.49208 9.78744 8.35785 9.85825 8.24077C9.92907 8.12369 10.0306 8.02821 10.1517 7.96468C10.2729 7.90114 10.4092 7.87196 10.5458 7.88031C10.6823 7.88866 10.814 7.93421 10.9266 8.01203L15.8016 11.387C15.9013 11.456 15.9829 11.5482 16.0392 11.6556C16.0956 11.7631 16.125 11.8826 16.125 12.0039C16.125 12.1252 16.0956 12.2447 16.0392 12.3522C15.9829 12.4596 15.9013 12.5518 15.8016 12.6208Z" fill="#41B5AC"/>
</svg>
